<?xml version="1.0" encoding="utf-8"?>
<!-- Generator: Adobe Illustrator 22.0.1, SVG Export Plug-In . SVG Version: 6.00 Build 0)  -->
<svg version="1.1" id="Layer_1" xmlns="http://www.w3.org/2000/svg" xmlns:xlink="http://www.w3.org/1999/xlink" x="0px" y="0px"
	 viewBox="0 0 40.4 41" style="enable-background:new 0 0 40.4 41;" xml:space="preserve">
<g id="_x30_1">
	<path d="M22.6,1.8c0-1-0.8-1.8-1.8-1.8c-1,0-1.8,0.8-1.8,1.8l0,4c0,1,0.8,1.8,1.8,1.8s1.8-0.8,1.8-1.8V1.8z"/>
	<path d="M8.6,6.1c-0.7-0.7-1.8-0.7-2.5,0s-0.7,1.8,0,2.5l2.8,2.8c0.7,0.7,1.8,0.7,2.5,0c0.7-0.7,0.7-1.8,0-2.5L8.6,6.1z"/>
	<path d="M1.8,18.4c-1,0-1.8,0.8-1.8,1.8c0,1,0.8,1.8,1.8,1.8h4c1,0,1.8-0.8,1.8-1.8c0-1-0.8-1.8-1.8-1.8H1.8z"/>
	<path d="M6.1,32.9c-0.7,0.7-0.7,1.8,0,2.5c0.7,0.7,1.8,0.7,2.5,0l2.8-2.8c0.7-0.7,0.7-1.8,0-2.5c-0.7-0.7-1.8-0.7-2.5,0L6.1,32.9z"
		/>
	<path d="M19,39.2c0,1,0.8,1.8,1.8,1.8c1,0,1.8-0.8,1.8-1.8v-4c0-1-0.8-1.8-1.8-1.8c-1,0-1.8,0.8-1.8,1.8C19,35.2,19,39.2,19,39.2z"
		/>
	<path d="M32.9,35.5c0.7,0.7,1.8,0.7,2.5,0c0.7-0.7,0.7-1.8,0-2.5l-2.8-2.8c-0.7-0.7-1.8-0.7-2.5,0c-0.7,0.7-0.7,1.8,0,2.5
		L32.9,35.5z"/>
	<path d="M38.6,22.6c1,0,1.8-0.8,1.8-1.8c0-1-0.8-1.8-1.8-1.8h-4c-1,0-1.8,0.8-1.8,1.8c0,1,0.8,1.8,1.8,1.8L38.6,22.6z"/>
	<path d="M35.5,8.6c0.7-0.7,0.7-1.8,0-2.5c-0.7-0.7-1.8-0.7-2.5,0l-2.8,2.8c-0.7,0.7-0.7,1.8,0,2.5c0.7,0.7,1.8,0.7,2.5,0L35.5,8.6z
		"/>
	<path d="M20.8,9.7c-6.1,0-11.1,5-11.1,11.1S14.7,32,20.8,32c6.1,0,11.1-5,11.1-11.1C31.9,14.7,27,9.7,20.8,9.7z M20.8,28.4
		c-4.2,0-7.6-3.4-7.6-7.6s3.4-7.6,7.6-7.6c4.2,0,7.6,3.4,7.6,7.6S25,28.4,20.8,28.4z"/>
</g>
</svg>
