<?xml version="1.0" encoding="utf-8"?>
<!-- Generator: Adobe Illustrator 23.0.0, SVG Export Plug-In . SVG Version: 6.00 Build 0)  -->
<svg version="1.1" id="Layer_1" xmlns="http://www.w3.org/2000/svg" xmlns:xlink="http://www.w3.org/1999/xlink" x="0px" y="0px"
	 viewBox="0 0 300 200" style="enable-background:new 0 0 300 200;" xml:space="preserve">
<style type="text/css">
	.st0{fill:#FEF7C4;}
	.st1{fill:#FBE86C;}
	.st2{fill:#F0864A;}
	.st3{fill:#74A6E2;}
</style>
<g>
	<circle class="st0" cx="213.54" cy="83.16" r="53.55"/>
</g>
<g>
	<circle class="st1" cx="213.54" cy="82.86" r="44.83"/>
</g>
<g>
	<circle class="st2" cx="213.84" cy="83.16" r="36.1"/>
</g>
<path class="st3" d="M251.75,151.11c0-10.65-8.63-19.28-19.28-19.28c-0.91,0-1.8,0.09-2.68,0.21c0.91-2.24,1.42-4.67,1.42-7.23
	c0-10.65-8.63-19.28-19.28-19.28c-1,0-1.98,0.1-2.95,0.25c-1.9-21.48-19.93-38.33-41.9-38.33c-11.43,0-21.79,4.57-29.38,11.97
	c-34.78,2.12-64.28,23.74-77.73,54.07c-2.39-1.06-5.02-1.66-7.8-1.66c-10.65,0-19.28,8.63-19.28,19.28
	c0,10.65,8.63,19.28,19.28,19.28h182.31c0-0.04,0-0.07,0-0.11C244.19,169.27,251.75,161.08,251.75,151.11z"/>
</svg>
