<?xml version="1.0" encoding="utf-8"?>
<!-- Generator: Adobe Illustrator 22.0.1, SVG Export Plug-In . SVG Version: 6.00 Build 0)  -->
<svg version="1.1" id="Layer_1" xmlns="http://www.w3.org/2000/svg" xmlns:xlink="http://www.w3.org/1999/xlink" x="0px" y="0px"
	 viewBox="0 0 54.7 33.5" style="enable-background:new 0 0 54.7 33.5;" xml:space="preserve">
<g id="_x30_3">
	<path d="M37.3,6.3c0.8,0,1.5-0.7,1.5-1.5V1.5c0-0.8-0.7-1.5-1.5-1.5c-0.8,0-1.5,0.7-1.5,1.5v3.3C35.8,5.7,36.4,6.3,37.3,6.3z"/>
	<path d="M27.3,9.6c0.6,0.6,1.5,0.6,2.1,0C30,9,30,8,29.4,7.5L27,5.1c-0.6-0.6-1.5-0.6-2.1,0s-0.6,1.5,0,2.1L27.3,9.6z"/>
	<path d="M47.2,25.3c-0.6-0.6-1.5-0.6-2.1,0c-0.6,0.6-0.6,1.5,0,2.1l2.4,2.4c0.6,0.6,1.5,0.6,2.1,0c0.6-0.6,0.6-1.5,0-2.1L47.2,25.3
		z"/>
	<path d="M53.2,16h-3.3c-0.8,0-1.5,0.7-1.5,1.5c0,0.8,0.7,1.5,1.5,1.5h3.3c0.8,0,1.5-0.7,1.5-1.5C54.7,16.6,54,16,53.2,16z"/>
	<path d="M47.2,9.6l2.4-2.4c0.6-0.6,0.6-1.5,0-2.1c-0.6-0.6-1.5-0.6-2.1,0l-2.4,2.4c-0.6,0.6-0.6,1.5,0,2.1
		C45.7,10.2,46.6,10.2,47.2,9.6z"/>
	<path d="M46.6,17.5c0-5.2-4.2-9.3-9.3-9.3c-3,0-5.7,1.4-7.4,3.7c-1.9-0.7-3.7-0.6-4.6-0.4c-2-2-5.4-3.5-8.8-3.5
		c-6.7,0-12.3,5.2-12.8,11.8C1.5,21,0,23.4,0,26.1c0,4.1,3.3,7.4,7.4,7.4h28.4c4.2,0,7.6-3.4,7.6-7.6c0,0,0-0.5-0.1-1.3
		C45.3,22.9,46.6,20.3,46.6,17.5z M35.8,30.7H8c-2.8,0-4.8-2-4.8-4.6c0-2.1,1.3-4,3.4-4.6c0.2-10,9-10.5,10-10.5
		c2.9,0,5.8,1.4,7.6,3.5c3.7-1.2,8.8,1.7,8.3,7.2c1.5-0.6,2.9-0.5,3.3-0.5c2.1,0,4.6,1.8,4.6,4.8C40.4,28.6,38.4,30.7,35.8,30.7z
		 M35.5,18.4c-0.6-2.4-1.7-4-3-5.1c1.2-1.3,2.9-2.2,4.8-2.2c3.5,0,6.4,2.8,6.4,6.4c0,1.6-0.6,3-1.5,4.1
		C39.9,18.1,35.5,18.4,35.5,18.4z"/>
</g>
</svg>
