<?xml version="1.0" encoding="utf-8"?>
<!-- Generator: Adobe Illustrator 23.0.0, SVG Export Plug-In . SVG Version: 6.00 Build 0)  -->
<svg version="1.1" id="Layer_1" xmlns="http://www.w3.org/2000/svg" xmlns:xlink="http://www.w3.org/1999/xlink" x="0px" y="0px"
	 viewBox="0 0 300 200" style="enable-background:new 0 0 300 200;" xml:space="preserve">
<style type="text/css">
	.st0{fill:#E7BF1B;}
	.st1{fill:#EADD1A;}
	.st2{fill:#404044;}
</style>
<g>
	<path class="st0" d="M196.2,110.49c20.62,14.99,49.48,10.43,64.48-10.19c2.01-2.76,3.65-5.67,4.96-8.67
		c-15.62,10.49-36.77,10.71-52.88-1c-17.86-12.99-23.67-36.38-15.16-55.81c-4.38,2.94-8.32,6.68-11.6,11.19
		C171.02,66.63,175.59,95.5,196.2,110.49z"/>
	<path class="st1" d="M198.11,107.87c20.62,14.99,49.48,10.43,64.48-10.19c2.01-2.76,3.65-5.67,4.96-8.67
		c-15.62,10.49-36.77,10.71-52.88-1C196.81,75.02,191,51.62,199.51,32.2c-4.38,2.94-8.32,6.68-11.6,11.19
		C172.93,64,177.49,92.88,198.11,107.87z"/>
</g>
<path class="st2" d="M251.3,148.53c0-10.65-8.63-19.28-19.28-19.28c-0.91,0-1.8,0.09-2.68,0.21c0.91-2.24,1.42-4.67,1.42-7.23
	c0-10.65-8.63-19.28-19.28-19.28c-1,0-1.98,0.1-2.95,0.25c-1.9-21.48-19.93-38.33-41.9-38.33c-11.43,0-21.79,4.57-29.38,11.97
	c-34.78,2.12-64.28,23.74-77.73,54.07c-2.39-1.06-5.02-1.66-7.8-1.66c-10.65,0-19.28,8.63-19.28,19.28
	c0,10.65,8.63,19.28,19.28,19.28h182.31c0-0.04,0-0.07,0-0.11C243.74,166.69,251.3,158.49,251.3,148.53z"/>
</svg>
