<?xml version="1.0" encoding="utf-8"?>
<!-- Generator: Adobe Illustrator 22.0.1, SVG Export Plug-In . SVG Version: 6.00 Build 0)  -->
<svg version="1.1" id="Layer_1" xmlns="http://www.w3.org/2000/svg" xmlns:xlink="http://www.w3.org/1999/xlink" x="0px" y="0px"
	 viewBox="0 0 51.3 33.8" style="enable-background:new 0 0 51.3 33.8;" xml:space="preserve">
<path id="_x30_7" d="M35.9,33.8c4.2,0,7.6-3.4,7.6-7.6c0,0,0-1-0.4-2.2c2.8-0.5,5.3-2,7.1-4.1c2.4-2.7-0.3-2.7-1.2-2.8
	C43.6,16.4,36.3,10.8,39,1.8c0.6-1.9-0.5-1.9-1.3-1.7c0,0-8.5,1.9-9,11.6c-1.4-0.3-2.7-0.2-3.3,0c-2-2-5.4-3.5-8.8-3.5
	C9.8,8.2,4.2,13.4,3.7,20C1.5,21.3,0,23.7,0,26.4c0,4.1,3.3,7.4,7.4,7.4H35.9z M8,31c-2.8,0-4.8-2-4.8-4.6c0-2.1,1.3-4,3.4-4.6
	c0.2-10,9-10.5,10-10.5c2.9,0,5.8,1.4,7.6,3.5c3.7-1.2,8.9,1.7,8.3,7.2c1.5-0.6,2.9-0.5,3.3-0.5c2.1,0,4.6,1.8,4.6,4.8
	c0,2.6-2.1,4.6-4.6,4.6L8,31L8,31z M41.8,21.3c-1.1-1.4-3.1-2.6-6.2-2.6c-0.7-3-2.3-4.8-4-5.8c-0.4-5,2.7-7.9,4.2-8.9
	c-1.2,6.4,3.9,14.4,11.1,15.2C45.6,20.2,43.7,21,41.8,21.3z"/>
</svg>
