<?xml version="1.0" encoding="utf-8"?>
<!-- Generator: Adobe Illustrator 22.0.1, SVG Export Plug-In . SVG Version: 6.00 Build 0)  -->
<svg version="1.1" id="Layer_1" xmlns="http://www.w3.org/2000/svg" xmlns:xlink="http://www.w3.org/1999/xlink" x="0px" y="0px"
	 viewBox="0 0 300 200" style="enable-background:new 0 0 300 200;" xml:space="preserve">
<style type="text/css">
	.st0{fill:#DEFAFC;}
	.st1{fill:#AFF2FF;}
	.st2{fill:#86EAFF;}
	.st3{fill:#0ED3FF;}
</style>
<path class="st0" d="M257.8,117.5c0-10.7-8.6-19.3-19.3-19.3c-0.9,0-1.8,0.1-2.7,0.2c0.9-2.2,1.4-4.7,1.4-7.2
	c0-10.7-8.6-19.3-19.3-19.3c-1,0-2,0.1-2.9,0.2c-1.9-21.5-19.9-38.3-41.9-38.3c-11.4,0-21.8,4.6-29.4,12C109,47.9,79.5,69.6,66,99.9
	c-2.4-1.1-5-1.7-7.8-1.7c-10.6,0-19.3,8.6-19.3,19.3s8.6,19.3,19.3,19.3h182.3c0,0,0-0.1,0-0.1C250.2,135.7,257.8,127.5,257.8,117.5
	z"/>
<g>
	<path class="st1" d="M116.6,136.7l-5.9-10.4l-7.5-13.1c-0.9-1.5-3.4-1.5-4.3,0l-7.5,13.1l-5.9,10.4c-1.9,2.5-3.1,5.6-3.1,8.8
		c0,8.9,8.3,16.1,18.6,16.1s18.6-7.2,18.6-16.1C119.7,142.3,118.6,139.2,116.6,136.7z"/>
	<path class="st2" d="M115.1,135.6l-5.4-9.4l-6.7-11.8c-0.8-1.4-3.1-1.4-3.8,0l-6.7,11.8l-5.4,9.4c-1.7,2.3-2.8,5-2.8,7.9
		c0,8,7.5,14.4,16.8,14.4s16.8-6.5,16.8-14.4C117.8,140.6,116.8,137.9,115.1,135.6z"/>
	<path class="st3" d="M112.7,134.4l-4.4-7.8l-5.6-9.8c-0.7-1.1-2.5-1.1-3.2,0l-5.6,9.8l-4.4,7.8c-1.4,1.9-2.3,4.1-2.3,6.6
		c0,6.6,6.2,12,13.9,12s13.9-5.4,13.9-12C115,138.5,114.1,136.3,112.7,134.4z"/>
</g>
<g>
	<path class="st1" d="M199.8,143.9l-7.4-12.9l-9.2-16.2c-1.1-1.9-4.2-1.9-5.3,0l-9.2,16.2l-7.4,12.9c-2.4,3.1-3.8,6.9-3.8,10.9
		c0,11,10.3,19.9,23,19.9s23-8.9,23-19.9C203.5,150.8,202.1,147.1,199.8,143.9z"/>
	<path class="st2" d="M197.9,142.6l-6.6-11.6l-8.3-14.6c-1-1.7-3.8-1.7-4.8,0l-8.3,14.6l-6.6,11.6c-2.1,2.8-3.4,6.2-3.4,9.8
		c0,9.9,9.3,17.9,20.7,17.9s20.7-8,20.7-17.9C201.2,148.8,200,145.4,197.9,142.6z"/>
	<path class="st3" d="M194.9,141.1l-5.5-9.6l-6.9-12.1c-0.8-1.4-3.1-1.4-3.9,0l-6.9,12.1l-5.5,9.6c-1.8,2.3-2.8,5.1-2.8,8.1
		c0,8.2,7.7,14.8,17.2,14.8s17.2-6.6,17.2-14.8C197.7,146.2,196.7,143.4,194.9,141.1z"/>
</g>
<g>
	<path class="st1" d="M149.8,135.7l-3-5.2l-3.7-6.6c-0.4-0.8-1.7-0.8-2.1,0l-3.7,6.6l-3,5.2c-1,1.3-1.5,2.8-1.5,4.4
		c0,4.4,4.2,8,9.3,8s9.3-3.6,9.3-8C151.3,138.4,150.8,136.9,149.8,135.7z"/>
	<path class="st2" d="M149,135.1l-2.7-4.7l-3.4-5.9c-0.4-0.7-1.5-0.7-1.9,0l-3.4,5.9l-2.7,4.7c-0.9,1.1-1.4,2.5-1.4,4
		c0,4,3.8,7.2,8.4,7.2s8.4-3.2,8.4-7.2C150.4,137.6,149.9,136.3,149,135.1z"/>
	<path class="st3" d="M147.8,134.5l-2.2-3.9l-2.8-4.9c-0.3-0.6-1.3-0.6-1.6,0l-2.8,4.9l-2.2,3.9c-0.7,0.9-1.1,2.1-1.1,3.3
		c0,3.3,3.1,6,6.9,6s6.9-2.7,6.9-6C149,136.6,148.6,135.5,147.8,134.5z"/>
</g>
<g>
	<path class="st1" d="M228.9,138.1l-3.8-6.7l-4.8-8.4c-0.6-1-2.2-1-2.7,0l-4.8,8.4l-3.8,6.7c-1.2,1.6-2,3.6-2,5.6
		c0,5.7,5.3,10.3,11.9,10.3s11.9-4.6,11.9-10.3C230.8,141.7,230.1,139.8,228.9,138.1z"/>
	<path class="st2" d="M227.9,137.4l-3.4-6l-4.3-7.6c-0.5-0.9-2-0.9-2.5,0l-4.3,7.6l-3.4,6c-1.1,1.5-1.8,3.2-1.8,5.1
		c0,5.1,4.8,9.3,10.8,9.3c5.9,0,10.8-4.1,10.8-9.3C229.6,140.6,229,138.9,227.9,137.4z"/>
	<path class="st3" d="M226.3,136.6l-2.9-5l-3.6-6.3c-0.4-0.7-1.6-0.7-2.1,0l-3.6,6.3l-2.9,5c-0.9,1.2-1.5,2.7-1.5,4.2
		c0,4.2,4,7.7,8.9,7.7s8.9-3.4,8.9-7.7C227.8,139.3,227.2,137.9,226.3,136.6z"/>
</g>
</svg>
