<?xml version="1.0" encoding="utf-8"?>
<!-- Generator: Adobe Illustrator 23.0.0, SVG Export Plug-In . SVG Version: 6.00 Build 0)  -->
<svg version="1.1" id="Layer_1" xmlns="http://www.w3.org/2000/svg" xmlns:xlink="http://www.w3.org/1999/xlink" x="0px" y="0px"
	 viewBox="0 0 300 200" style="enable-background:new 0 0 300 200;" xml:space="preserve">
<style type="text/css">
	.st0{fill:#BACBCC;}
	.st1{fill:#AFF2FF;}
	.st2{fill:#86EAFF;}
	.st3{fill:#0ED3FF;}
</style>
<path class="st0" d="M257.79,117.51c0-10.65-8.63-19.28-19.28-19.28c-0.91,0-1.8,0.09-2.68,0.21c0.91-2.24,1.42-4.67,1.42-7.23
	c0-10.65-8.63-19.28-19.28-19.28c-1,0-1.98,0.1-2.95,0.25c-1.9-21.48-19.93-38.33-41.9-38.33c-11.43,0-21.79,4.57-29.38,11.97
	c-34.78,2.12-64.28,23.74-77.73,54.07c-2.39-1.06-5.02-1.66-7.8-1.66c-10.65,0-19.28,8.63-19.28,19.28s8.63,19.28,19.28,19.28
	h182.31c0-0.04,0-0.07,0-0.11C250.23,135.67,257.79,127.48,257.79,117.51z"/>
<text transform="matrix(1 0 0 1 300 -9.3417)"><tspan x="0" y="0" style="font-family:'MyriadPro-Regular'; font-size:12px;">175</tspan><tspan x="18.47" y="0" style="font-family:'MyriadPro-Regular'; font-size:12px; letter-spacing:14;">	</tspan><tspan x="36" y="0" style="font-family:'MyriadPro-Regular'; font-size:12px;">242</tspan><tspan x="54.47" y="0" style="font-family:'MyriadPro-Regular'; font-size:12px; letter-spacing:14;">	</tspan><tspan x="72" y="0" style="font-family:'MyriadPro-Regular'; font-size:12px;">255</tspan><tspan x="90.47" y="0" style="font-family:'MyriadPro-Regular'; font-size:12px; letter-spacing:14;">	</tspan></text>
<g>
	<path class="st1" d="M116.63,136.7l-5.95-10.45l-7.46-13.09c-0.87-1.53-3.41-1.53-4.28,0l-7.46,13.09l-5.95,10.45
		c-1.93,2.53-3.06,5.56-3.06,8.81c0,8.86,8.33,16.05,18.61,16.05s18.61-7.19,18.61-16.05C119.69,142.26,118.56,139.23,116.63,136.7z
		"/>
	<path class="st2" d="M115.08,135.64l-5.36-9.41L103,114.44c-0.79-1.38-3.07-1.38-3.85,0l-6.72,11.79l-5.36,9.41
		c-1.74,2.28-2.75,5-2.75,7.93c0,7.98,7.5,14.45,16.76,14.45s16.76-6.47,16.76-14.45C117.84,140.64,116.82,137.92,115.08,135.64z"/>
	<path class="st3" d="M112.69,134.38l-4.44-7.8l-5.57-9.78c-0.65-1.14-2.54-1.14-3.19,0l-5.57,9.78l-4.44,7.8
		c-1.44,1.89-2.28,4.15-2.28,6.58c0,6.62,6.22,11.98,13.89,11.98s13.89-5.36,13.89-11.98C114.97,138.53,114.13,136.27,112.69,134.38
		z"/>
</g>
<g>
	<path class="st1" d="M199.76,143.94l-7.36-12.92l-9.23-16.19c-1.08-1.89-4.21-1.89-5.29,0l-9.23,16.19l-7.36,12.92
		c-2.39,3.13-3.78,6.87-3.78,10.9c0,10.96,10.3,19.85,23.01,19.85s23.01-8.89,23.01-19.85
		C203.54,150.81,202.15,147.07,199.76,143.94z"/>
	<path class="st2" d="M197.85,142.62l-6.63-11.64l-8.31-14.58c-0.97-1.71-3.79-1.71-4.76,0l-8.31,14.58l-6.63,11.64
		c-2.15,2.82-3.4,6.19-3.4,9.81c0,9.87,9.28,17.88,20.72,17.88s20.72-8,20.72-17.88C201.25,148.81,200,145.44,197.85,142.62z"/>
	<path class="st3" d="M194.89,141.07l-5.5-9.65l-6.89-12.09c-0.81-1.41-3.14-1.41-3.95,0l-6.89,12.09l-5.5,9.65
		c-1.78,2.34-2.82,5.13-2.82,8.13c0,8.18,7.69,14.82,17.18,14.82s17.18-6.63,17.18-14.82C197.71,146.2,196.67,143.4,194.89,141.07z"
		/>
</g>
<g>
	<path class="st1" d="M149.8,135.67l-2.98-5.23l-3.73-6.55c-0.44-0.77-1.7-0.77-2.14,0l-3.73,6.55l-2.98,5.23
		c-0.96,1.26-1.53,2.78-1.53,4.41c0,4.43,4.17,8.02,9.3,8.02s9.3-3.59,9.3-8.02C151.33,138.45,150.77,136.94,149.8,135.67z"/>
	<path class="st2" d="M149.03,135.14l-2.68-4.71l-3.36-5.9c-0.39-0.69-1.53-0.69-1.93,0l-3.36,5.9l-2.68,4.71
		c-0.87,1.14-1.38,2.5-1.38,3.97c0,3.99,3.75,7.23,8.38,7.23s8.38-3.24,8.38-7.23C150.4,137.64,149.9,136.28,149.03,135.14z"/>
	<path class="st3" d="M147.83,134.51l-2.22-3.9l-2.78-4.89c-0.33-0.57-1.27-0.57-1.6,0l-2.78,4.89l-2.22,3.9
		c-0.72,0.94-1.14,2.07-1.14,3.29c0,3.31,3.11,5.99,6.95,5.99s6.95-2.68,6.95-5.99C148.97,136.59,148.55,135.46,147.83,134.51z"/>
</g>
<g>
	<path class="st1" d="M228.86,138.12l-3.82-6.7l-4.78-8.4c-0.56-0.98-2.18-0.98-2.74,0l-4.78,8.4l-3.82,6.7
		c-1.24,1.62-1.96,3.56-1.96,5.65c0,5.68,5.34,10.29,11.93,10.29s11.93-4.61,11.93-10.29C230.82,141.69,230.1,139.75,228.86,138.12z
		"/>
	<path class="st2" d="M227.87,137.44l-3.44-6.04l-4.31-7.56c-0.5-0.88-1.97-0.88-2.47,0l-4.31,7.56l-3.44,6.04
		c-1.11,1.46-1.76,3.21-1.76,5.09c0,5.12,4.81,9.27,10.75,9.27c5.93,0,10.75-4.15,10.75-9.27
		C229.63,140.65,228.98,138.9,227.87,137.44z"/>
	<path class="st3" d="M226.33,136.64l-2.85-5l-3.57-6.27c-0.42-0.73-1.63-0.73-2.05,0l-3.57,6.27l-2.85,5
		c-0.92,1.21-1.46,2.66-1.46,4.22c0,4.24,3.99,7.68,8.91,7.68s8.91-3.44,8.91-7.68C227.79,139.29,227.25,137.85,226.33,136.64z"/>
</g>
</svg>
