<?xml version="1.0" encoding="utf-8"?>
<!-- Generator: Adobe Illustrator 22.0.1, SVG Export Plug-In . SVG Version: 6.00 Build 0)  -->
<svg version="1.1" id="Layer_1" xmlns="http://www.w3.org/2000/svg" xmlns:xlink="http://www.w3.org/1999/xlink" x="0px" y="0px"
	 viewBox="0 0 54.4 42.3" style="enable-background:new 0 0 54.4 42.3;" xml:space="preserve">
<g id="_x31_1">
	<path d="M38.6,1.5c0-0.8-0.7-1.5-1.5-1.5c-0.8,0-1.5,0.7-1.5,1.5v3.3c0,0.8,0.7,1.5,1.5,1.5c0.8,0,1.5-0.7,1.5-1.5V1.5z"/>
	<path d="M27,5.1c-0.6-0.6-1.5-0.6-2.1,0c-0.6,0.6-0.6,1.5,0,2.1l2.3,2.3c0.6,0.6,1.5,0.6,2.1,0c0.6-0.6,0.6-1.5,0-2.1L27,5.1z"/>
	<path d="M47.2,29.6c0.6,0.6,1.5,0.6,2.1,0s0.6-1.5,0-2.1L47,25.1c-0.6-0.6-1.5-0.6-2.1,0s-0.6,1.5,0,2.1L47.2,29.6z"/>
	<path d="M52.9,18.8c0.8,0,1.5-0.7,1.5-1.5s-0.7-1.5-1.5-1.5h-3.3c-0.8,0-1.5,0.7-1.5,1.5s0.7,1.5,1.5,1.5L52.9,18.8z"/>
	<path d="M49.4,7.2c0.6-0.6,0.6-1.5,0-2.1c-0.6-0.6-1.5-0.6-2.1,0l-2.3,2.3c-0.6,0.6-0.6,1.5,0,2.1c0.6,0.6,1.5,0.6,2.1,0L49.4,7.2z
		"/>
	<path d="M46.4,17.3c0-5.1-4.1-9.3-9.3-9.3c-3,0-5.7,1.4-7.4,3.7c-1.9-0.7-3.7-0.6-4.6-0.4c-2-2-5.4-3.5-8.7-3.5
		c-6.7,0-12.2,5.2-12.7,11.8C1.5,21,0,23.3,0,26.1c0,4.1,3.3,7.4,7.3,7.4h1c0.7,0,1.2-0.7,1.2-1.4c0-0.8-0.6-1.4-1.4-1.4H8
		c-2.7,0-4.8-2-4.8-4.6c0-2.1,1.3-3.9,3.4-4.6c0.2-9.9,9-10.4,9.9-10.4c2.9,0,5.7,1.4,7.6,3.5c3.7-1.2,8.8,1.6,8.2,7.2
		c1.4-0.6,2.9-0.5,3.3-0.5c2.1,0,4.6,1.8,4.6,4.8c0,2.5-2.1,4.6-4.6,4.6h-0.2c-0.8,0-1.4,0.6-1.4,1.4s0.6,1.4,1.4,1.4h0.2
		c4.2,0,7.6-3.4,7.6-7.6c0,0,0-0.6-0.2-1.4C45.1,22.7,46.4,20.2,46.4,17.3z M41.9,21.5c-1.1-1.7-3-3.2-6.6-3.2c-0.6-2.4-1.7-4-3-5.1
		c1.2-1.3,2.9-2.2,4.8-2.2c3.5,0,6.3,2.8,6.3,6.3C43.4,18.9,42.9,20.4,41.9,21.5z"/>
	<path d="M47,25.2c-0.6-0.6-1.5-0.6-2.1,0c-0.6,0.6-0.6,1.5,0,2.1l2.3,2.3c0.6,0.6,1.5,0.6,2.1,0c0.6-0.6,0.6-1.5,0-2.1L47,25.2z"/>
	<path d="M52.9,15.9h-3.3c-0.8,0-1.5,0.7-1.5,1.5c0,0.8,0.7,1.5,1.5,1.5h3.3c0.8,0,1.5-0.7,1.5-1.5C54.4,16.5,53.8,15.9,52.9,15.9z"
		/>
	<path d="M16.2,31.3c0.4-0.7,0.2-1.6-0.5-2c-0.7-0.4-1.6-0.2-2,0.5l-1.7,2.9c-0.4,0.7-0.2,1.6,0.5,2s1.6,0.2,2-0.5L16.2,31.3z"/>
	<path d="M23.9,31.3c0.4-0.7,0.2-1.6-0.5-2c-0.7-0.4-1.6-0.2-2,0.5l-1.7,2.9c-0.4,0.7-0.2,1.6,0.5,2c0.7,0.4,1.6,0.2,2-0.5
		L23.9,31.3z"/>
	<path d="M17,38.7c0.4-0.7,0.2-1.6-0.5-2c-0.7-0.4-1.6-0.2-2,0.5l-1.7,2.9c-0.4,0.7-0.2,1.6,0.5,2c0.7,0.4,1.6,0.2,2-0.5L17,38.7z"
		/>
	<path d="M31.6,31.3c0.4-0.7,0.2-1.6-0.5-2s-1.6-0.2-2,0.5l-1.7,2.9c-0.4,0.7-0.2,1.6,0.5,2s1.6,0.2,2-0.5L31.6,31.3z"/>
	<path d="M24.8,38.7c0.4-0.7,0.2-1.6-0.5-2c-0.7-0.4-1.6-0.2-2,0.5l-1.7,2.9c-0.4,0.7-0.2,1.6,0.5,2c0.7,0.4,1.6,0.2,2-0.5
		L24.8,38.7z"/>
</g>
</svg>
