<?xml version="1.0" encoding="utf-8"?>
<!-- Generator: Adobe Illustrator 23.0.0, SVG Export Plug-In . SVG Version: 6.00 Build 0)  -->
<svg version="1.1" id="Layer_1" xmlns="http://www.w3.org/2000/svg" xmlns:xlink="http://www.w3.org/1999/xlink" x="0px" y="0px"
	 viewBox="0 0 300 200" style="enable-background:new 0 0 300 200;" xml:space="preserve">
<style type="text/css">
	.st0{fill:#D8D8D8;}
	.st1{fill:#FFDF59;}
</style>
<path class="st0" d="M259.42,113.24c0-10.65-8.63-19.28-19.28-19.28c-0.91,0-1.8,0.09-2.68,0.21c0.91-2.24,1.42-4.67,1.42-7.23
	c0-10.65-8.63-19.28-19.28-19.28c-1,0-1.98,0.1-2.95,0.25c-1.9-21.48-19.93-38.33-41.9-38.33c-11.43,0-21.79,4.57-29.38,11.97
	C110.6,43.67,81.1,65.29,67.66,95.62c-2.39-1.06-5.02-1.66-7.8-1.66c-10.65,0-19.28,8.63-19.28,19.28s8.63,19.28,19.28,19.28h182.31
	c0-0.04,0-0.07,0-0.11C251.86,131.4,259.42,123.2,259.42,113.24z"/>
<path class="st1" d="M170.96,83.99l-45.52,51.51h11.3l-16.51,24.03h11.85l-18.75,34.46l44.94-39.42h-12.41l19.85-28.12h-12.41
	L170.96,83.99z"/>
</svg>
