<?xml version="1.0" encoding="utf-8"?>
<!-- Generator: Adobe Illustrator 23.0.0, SVG Export Plug-In . SVG Version: 6.00 Build 0)  -->
<svg version="1.1" id="Layer_1" xmlns="http://www.w3.org/2000/svg" xmlns:xlink="http://www.w3.org/1999/xlink" x="0px" y="0px"
	 viewBox="0 0 300 200" style="enable-background:new 0 0 300 200;" xml:space="preserve">
<style type="text/css">
	.st0{fill:#E7BF1B;}
	.st1{fill:#EADD1A;}
	.st2{fill:#474747;}
	.st3{fill:#FFDF59;}
</style>
<g>
	<path class="st0" d="M205.65,70.89c11.9,11.9,31.19,11.9,43.09,0c1.59-1.59,2.96-3.32,4.13-5.14c-11.27,5.23-25.08,3.2-34.38-6.1
		c-10.31-10.31-11.68-26.17-4.13-37.96c-3.16,1.47-6.11,3.5-8.72,6.1C193.75,39.69,193.75,58.99,205.65,70.89z"/>
	<path class="st1" d="M207.16,69.38c11.9,11.9,31.19,11.9,43.09,0c1.59-1.59,2.96-3.32,4.13-5.14c-11.27,5.23-25.08,3.2-34.38-6.1
		c-10.31-10.31-11.68-26.17-4.13-37.96c-3.16,1.47-6.11,3.5-8.72,6.1C195.26,38.18,195.26,57.47,207.16,69.38z"/>
</g>
<path class="st2" d="M255.14,115.44c0-10.65-8.63-19.28-19.28-19.28c-0.91,0-1.8,0.09-2.68,0.21c0.91-2.24,1.42-4.67,1.42-7.23
	c0-10.65-8.63-19.28-19.28-19.28c-1,0-1.98,0.1-2.95,0.25c-1.9-21.48-19.93-38.33-41.9-38.33c-11.43,0-21.79,4.57-29.38,11.97
	c-34.78,2.12-64.28,23.74-77.73,54.07c-2.39-1.06-5.02-1.66-7.8-1.66c-10.65,0-19.28,8.63-19.28,19.28s8.63,19.28,19.28,19.28
	h182.31c0-0.04,0-0.07,0-0.11C247.58,133.6,255.14,125.41,255.14,115.44z"/>
<path class="st3" d="M166.68,86.19l-45.52,51.51h11.3l-16.51,24.03h11.85l-18.75,34.46L154,156.77h-12.41l19.85-28.12h-12.41
	L166.68,86.19z"/>
</svg>
