<?xml version="1.0" encoding="utf-8"?>
<!-- Generator: Adobe Illustrator 23.0.0, SVG Export Plug-In . SVG Version: 6.00 Build 0)  -->
<svg version="1.1" id="Layer_1" xmlns="http://www.w3.org/2000/svg" xmlns:xlink="http://www.w3.org/1999/xlink" x="0px" y="0px"
	 viewBox="0 0 300 200" style="enable-background:new 0 0 300 200;" xml:space="preserve">
<style type="text/css">
	.st0{fill:#DBDBDB;}
	.st1{fill:#5ECEF4;}
	.st2{fill:#7ED8F6;}
</style>
<path class="st0" d="M255.03,119.03c0-10.65-8.63-19.28-19.28-19.28c-0.91,0-1.8,0.09-2.68,0.21c0.91-2.24,1.42-4.67,1.42-7.23
	c0-10.65-8.63-19.28-19.28-19.28c-1,0-1.98,0.1-2.95,0.25c-1.9-21.48-19.93-38.33-41.9-38.33c-11.43,0-21.79,4.57-29.38,11.97
	c-34.78,2.12-64.28,23.74-77.73,54.07c-2.39-1.06-5.02-1.66-7.8-1.66c-10.65,0-19.28,8.63-19.28,19.28s8.63,19.28,19.28,19.28
	h182.31c0-0.04,0-0.07,0-0.11C247.46,137.19,255.03,128.99,255.03,119.03z"/>
<path class="st1" d="M125.22,137.16c0,0.69-0.56,1.25-1.25,1.25c-0.69,0-1.25-0.56-1.25-1.25c0-0.69,0.56-1.25,1.25-1.25
	C124.66,135.91,125.22,136.47,125.22,137.16z"/>
<path class="st2" d="M113.96,137.16c0,0.69-0.56,1.25-1.25,1.25s-1.25-0.56-1.25-1.25c0-0.69,0.56-1.25,1.25-1.25
	S113.96,136.47,113.96,137.16z"/>
<g>
	<path class="st2" d="M120.07,147.11l-5.35,1.43l-3.94-2.27v-7.75l3.94-2.27l5.35,1.43c0.71,0.19,1.44-0.23,1.63-0.94
		c0.19-0.71-0.23-1.44-0.94-1.63l-2.79-0.75l2.2-1.27c0.64-0.37,0.85-1.18,0.49-1.82c-0.37-0.64-1.18-0.85-1.82-0.49l-2.2,1.27
		l0.75-2.79c0.19-0.71-0.23-1.44-0.94-1.63c-0.71-0.19-1.44,0.23-1.63,0.94l-1.43,5.35l-3.94,2.27l-6.71-3.88v-4.54l3.92-3.92
		c0.52-0.52,0.52-1.36,0-1.88c-0.52-0.52-1.36-0.52-1.88,0l-2.04,2.04v-2.54c0-0.73-0.6-1.33-1.33-1.33c-0.73,0-1.33,0.6-1.33,1.33
		v2.54L98.04,122c-0.52-0.52-1.36-0.52-1.88,0c-0.52,0.52-0.52,1.36,0,1.88l3.92,3.92v4.54l-6.71,3.88l-3.94-2.27l-1.43-5.35
		c-0.19-0.71-0.92-1.13-1.63-0.94c-0.71,0.19-1.13,0.92-0.94,1.63l0.75,2.79l-2.2-1.27c-0.64-0.37-1.45-0.15-1.82,0.49
		c-0.37,0.64-0.15,1.45,0.49,1.82l2.2,1.27l-2.79,0.75c-0.71,0.19-1.13,0.92-0.94,1.63c0.19,0.71,0.92,1.13,1.63,0.94l5.35-1.43
		l3.94,2.27v7.75l-3.94,2.27l-5.35-1.43c-0.71-0.19-1.44,0.23-1.63,0.94c-0.19,0.71,0.23,1.44,0.94,1.63l2.79,0.75l-2.2,1.27
		c-0.64,0.37-0.85,1.18-0.49,1.82c0.37,0.64,1.18,0.85,1.82,0.49l2.2-1.27l-0.75,2.79c-0.19,0.71,0.23,1.44,0.94,1.63
		c0.71,0.19,1.44-0.23,1.63-0.94l1.43-5.35l3.94-2.27l6.71,3.88V157l-3.92,3.92c-0.52,0.52-0.52,1.36,0,1.88
		c0.52,0.52,1.36,0.52,1.88,0l2.04-2.04v2.54c0,0.73,0.6,1.33,1.33,1.33c0.73,0,1.33-0.6,1.33-1.33v-2.54l2.04,2.04
		c0.52,0.52,1.36,0.52,1.88,0c0.52-0.52,0.52-1.36,0-1.88l-3.92-3.92v-4.54l6.71-3.88l3.94,2.27l1.43,5.35
		c0.19,0.71,0.92,1.13,1.63,0.94c0.71-0.19,1.13-0.92,0.94-1.63l-0.75-2.79l2.2,1.27c0.64,0.37,1.45,0.15,1.82-0.49
		c0.37-0.64,0.15-1.45-0.49-1.82l-2.2-1.27l2.79-0.75c0.71-0.19,1.13-0.92,0.94-1.63C121.51,147.35,120.78,146.92,120.07,147.11z
		 M94.69,140.06l4.06,2.34l-4.06,2.34V140.06z M100.08,149.39l-4.06-2.34l4.06-2.34V149.39z M100.08,140.1l-4.06-2.34l4.06-2.34
		V140.1z M102.74,135.41l4.06,2.34l-4.06,2.34V135.41z M102.74,149.39v-4.68l4.06,2.34L102.74,149.39z M108.12,144.74l-4.06-2.34
		l4.06-2.34V144.74z"/>
	<path class="st2" d="M89.39,142.4c0,0.87-0.71,1.58-1.58,1.58s-1.58-0.71-1.58-1.58s0.71-1.58,1.58-1.58S89.39,141.53,89.39,142.4z
		"/>
	<path class="st1" d="M116.59,142.4c0,0.87-0.71,1.58-1.58,1.58s-1.58-0.71-1.58-1.58s0.71-1.58,1.58-1.58
		S116.59,141.53,116.59,142.4z"/>
	<path class="st1" d="M110.12,154.88c0,0.87-0.71,1.58-1.58,1.58s-1.58-0.71-1.58-1.58c0-0.87,0.71-1.58,1.58-1.58
		S110.12,154.01,110.12,154.88z"/>
	<path class="st2" d="M95.87,154.88c0,0.87-0.71,1.58-1.58,1.58s-1.58-0.71-1.58-1.58c0-0.87,0.71-1.58,1.58-1.58
		S95.87,154.01,95.87,154.88z"/>
	<path class="st1" d="M120.07,147.11l-5.35,1.43l-3.94-2.27v-7.75l3.94-2.27l5.35,1.43c0.71,0.19,1.44-0.23,1.63-0.94
		c0.19-0.71-0.23-1.44-0.94-1.63l-2.79-0.75l2.2-1.27c0.64-0.37,0.85-1.18,0.49-1.82c-0.37-0.64-1.18-0.85-1.82-0.49l-2.2,1.27
		l0.75-2.79c0.19-0.71-0.23-1.44-0.94-1.63c-0.71-0.19-1.44,0.23-1.63,0.94l-1.43,5.35l-3.94,2.27l-6.71-3.88v-4.54l3.92-3.92
		c0.52-0.52,0.52-1.36,0-1.88c-0.52-0.52-1.36-0.52-1.88,0l-2.04,2.04v-2.54c0-0.73-0.6-1.33-1.33-1.33v44.45
		c0.73,0,1.33-0.6,1.33-1.33v-2.54l2.04,2.04c0.52,0.52,1.36,0.52,1.88,0c0.52-0.52,0.52-1.36,0-1.88l-3.92-3.92v-4.54l6.71-3.88
		l3.94,2.27l1.43,5.35c0.19,0.71,0.92,1.13,1.63,0.94c0.71-0.19,1.13-0.92,0.94-1.63l-0.75-2.79l2.2,1.27
		c0.64,0.37,1.45,0.15,1.82-0.49c0.37-0.64,0.15-1.45-0.49-1.82l-2.2-1.27l2.79-0.75c0.71-0.19,1.13-0.92,0.94-1.63
		C121.51,147.35,120.78,146.92,120.07,147.11z M102.74,135.41l4.06,2.34l-4.06,2.34V135.41z M102.74,149.39v-4.68l4.06,2.34
		L102.74,149.39z M108.12,144.74l-4.06-2.34l4.06-2.34V144.74z"/>
</g>
<g>
	<path class="st2" d="M217.78,146.59l-5.35,1.43l-3.94-2.27V138l3.94-2.27l5.35,1.43c0.71,0.19,1.44-0.23,1.63-0.94
		c0.19-0.71-0.23-1.44-0.94-1.63l-2.79-0.75l2.2-1.27c0.64-0.37,0.85-1.18,0.49-1.82c-0.37-0.64-1.18-0.85-1.82-0.49l-2.2,1.27
		l0.75-2.79c0.19-0.71-0.23-1.44-0.94-1.63c-0.71-0.19-1.44,0.23-1.63,0.94l-1.43,5.35l-3.94,2.27l-6.71-3.88v-4.54l3.92-3.92
		c0.52-0.52,0.52-1.36,0-1.88c-0.52-0.52-1.36-0.52-1.88,0l-2.04,2.04v-2.54c0-0.73-0.6-1.33-1.33-1.33c-0.73,0-1.33,0.6-1.33,1.33
		v2.54l-2.04-2.04c-0.52-0.52-1.36-0.52-1.88,0c-0.52,0.52-0.52,1.36,0,1.88l3.92,3.92v4.54l-6.71,3.88l-3.94-2.27l-1.43-5.35
		c-0.19-0.71-0.92-1.13-1.63-0.94c-0.71,0.19-1.13,0.92-0.94,1.63l0.75,2.79l-2.2-1.27c-0.64-0.37-1.45-0.15-1.82,0.49
		c-0.37,0.64-0.15,1.45,0.49,1.82l2.2,1.27l-2.79,0.75c-0.71,0.19-1.13,0.92-0.94,1.63c0.19,0.71,0.92,1.13,1.63,0.94l5.35-1.43
		l3.94,2.27v7.75l-3.94,2.27l-5.35-1.43c-0.71-0.19-1.44,0.23-1.63,0.94c-0.19,0.71,0.23,1.44,0.94,1.63l2.79,0.75l-2.2,1.27
		c-0.64,0.37-0.85,1.18-0.49,1.82c0.37,0.64,1.18,0.85,1.82,0.49l2.2-1.27l-0.75,2.79c-0.19,0.71,0.23,1.44,0.94,1.63
		c0.71,0.19,1.44-0.23,1.63-0.94l1.43-5.35l3.94-2.27l6.71,3.88v4.54l-3.92,3.92c-0.52,0.52-0.52,1.36,0,1.88
		c0.52,0.52,1.36,0.52,1.88,0l2.04-2.04v2.54c0,0.73,0.6,1.33,1.33,1.33c0.73,0,1.33-0.6,1.33-1.33v-2.54l2.04,2.04
		c0.52,0.52,1.36,0.52,1.88,0c0.52-0.52,0.52-1.36,0-1.88l-3.92-3.92v-4.54l6.71-3.88l3.94,2.27l1.43,5.35
		c0.19,0.71,0.92,1.13,1.63,0.94c0.71-0.19,1.13-0.92,0.94-1.63l-0.75-2.79l2.2,1.27c0.64,0.37,1.45,0.15,1.82-0.49
		c0.37-0.64,0.15-1.45-0.49-1.82l-2.2-1.27l2.79-0.75c0.71-0.19,1.13-0.92,0.94-1.63C219.22,146.82,218.49,146.4,217.78,146.59z
		 M192.41,139.53l4.06,2.34l-4.06,2.34V139.53z M197.79,148.86l-4.06-2.34l4.06-2.34V148.86z M197.79,139.57l-4.06-2.34l4.06-2.34
		V139.57z M200.45,134.89l4.06,2.34l-4.06,2.34V134.89z M200.45,148.86v-4.68l4.06,2.34L200.45,148.86z M205.83,144.22l-4.06-2.34
		l4.06-2.34V144.22z"/>
	<path class="st2" d="M187.1,141.87c0,0.87-0.71,1.58-1.58,1.58s-1.58-0.71-1.58-1.58s0.71-1.58,1.58-1.58S187.1,141,187.1,141.87z"
		/>
	<path class="st1" d="M214.3,141.87c0,0.87-0.71,1.58-1.58,1.58s-1.58-0.71-1.58-1.58s0.71-1.58,1.58-1.58S214.3,141,214.3,141.87z"
		/>
	<path class="st1" d="M207.83,154.36c0,0.87-0.71,1.58-1.58,1.58s-1.58-0.71-1.58-1.58s0.71-1.58,1.58-1.58
		S207.83,153.48,207.83,154.36z"/>
	<path class="st2" d="M193.58,154.36c0,0.87-0.71,1.58-1.58,1.58c-0.87,0-1.58-0.71-1.58-1.58s0.71-1.58,1.58-1.58
		C192.87,152.78,193.58,153.48,193.58,154.36z"/>
	<path class="st1" d="M217.78,146.59l-5.35,1.43l-3.94-2.27V138l3.94-2.27l5.35,1.43c0.71,0.19,1.44-0.23,1.63-0.94
		c0.19-0.71-0.23-1.44-0.94-1.63l-2.79-0.75l2.2-1.27c0.64-0.37,0.85-1.18,0.49-1.82c-0.37-0.64-1.18-0.85-1.82-0.49l-2.2,1.27
		l0.75-2.79c0.19-0.71-0.23-1.44-0.94-1.63c-0.71-0.19-1.44,0.23-1.63,0.94l-1.43,5.35l-3.94,2.27l-6.71-3.88v-4.54l3.92-3.92
		c0.52-0.52,0.52-1.36,0-1.88c-0.52-0.52-1.36-0.52-1.88,0l-2.04,2.04v-2.54c0-0.73-0.6-1.33-1.33-1.33v44.45
		c0.73,0,1.33-0.6,1.33-1.33v-2.54l2.04,2.04c0.52,0.52,1.36,0.52,1.88,0c0.52-0.52,0.52-1.36,0-1.88l-3.92-3.92v-4.54l6.71-3.88
		l3.94,2.27l1.43,5.35c0.19,0.71,0.92,1.13,1.63,0.94c0.71-0.19,1.13-0.92,0.94-1.63l-0.75-2.79l2.2,1.27
		c0.64,0.37,1.45,0.15,1.82-0.49c0.37-0.64,0.15-1.45-0.49-1.82l-2.2-1.27l2.79-0.75c0.71-0.19,1.13-0.92,0.94-1.63
		C219.22,146.82,218.49,146.4,217.78,146.59z M200.45,134.89l4.06,2.34l-4.06,2.34V134.89z M200.45,148.86v-4.68l4.06,2.34
		L200.45,148.86z M205.83,144.22l-4.06-2.34l4.06-2.34V144.22z"/>
</g>
<g>
	<path class="st2" d="M163.24,128.14l-4.23,1.13l-3.11-1.8v-6.13l3.11-1.8l4.23,1.13c0.56,0.15,1.14-0.18,1.29-0.74
		c0.15-0.56-0.18-1.14-0.74-1.29l-2.2-0.59l1.74-1c0.5-0.29,0.67-0.93,0.38-1.44c-0.29-0.5-0.93-0.67-1.44-0.38l-1.74,1l0.59-2.2
		c0.15-0.56-0.18-1.14-0.74-1.29c-0.56-0.15-1.14,0.18-1.29,0.74l-1.13,4.23l-3.11,1.8l-5.31-3.07v-3.59l3.1-3.1
		c0.41-0.41,0.41-1.08,0-1.49c-0.41-0.41-1.08-0.41-1.49,0l-1.61,1.61v-2.01c0-0.58-0.47-1.05-1.05-1.05
		c-0.58,0-1.05,0.47-1.05,1.05v2.01l-1.61-1.61c-0.41-0.41-1.08-0.41-1.49,0c-0.41,0.41-0.41,1.08,0,1.49l3.1,3.1v3.59l-5.31,3.07
		l-3.11-1.8l-1.13-4.23c-0.15-0.56-0.73-0.89-1.29-0.74c-0.56,0.15-0.89,0.73-0.74,1.29l0.59,2.2l-1.74-1
		c-0.5-0.29-1.15-0.12-1.44,0.38c-0.29,0.5-0.12,1.15,0.38,1.44l1.74,1l-2.2,0.59c-0.56,0.15-0.89,0.73-0.74,1.29
		c0.15,0.56,0.73,0.89,1.29,0.74l4.23-1.13l3.11,1.8v6.13l-3.11,1.8l-4.23-1.13c-0.56-0.15-1.14,0.18-1.29,0.74
		c-0.15,0.56,0.18,1.14,0.74,1.29l2.2,0.59l-1.74,1c-0.5,0.29-0.67,0.93-0.38,1.44c0.29,0.5,0.93,0.67,1.44,0.38l1.74-1l-0.59,2.2
		c-0.15,0.56,0.18,1.14,0.74,1.29c0.56,0.15,1.14-0.18,1.29-0.74l1.13-4.23l3.11-1.8l5.31,3.07v3.59l-3.1,3.1
		c-0.41,0.41-0.41,1.08,0,1.49c0.41,0.41,1.08,0.41,1.49,0l1.61-1.61v2.01c0,0.58,0.47,1.05,1.05,1.05c0.58,0,1.05-0.47,1.05-1.05
		v-2.01l1.61,1.61c0.41,0.41,1.08,0.41,1.49,0c0.41-0.41,0.41-1.08,0-1.49l-3.1-3.1v-3.59l5.31-3.07l3.11,1.8l1.13,4.23
		c0.15,0.56,0.73,0.89,1.29,0.74c0.56-0.15,0.89-0.73,0.74-1.29l-0.59-2.2l1.74,1c0.5,0.29,1.15,0.12,1.44-0.38
		c0.29-0.5,0.12-1.15-0.38-1.44l-1.74-1l2.2-0.59c0.56-0.15,0.89-0.73,0.74-1.29C164.38,128.32,163.8,127.99,163.24,128.14z
		 M143.17,122.56l3.21,1.85l-3.21,1.85V122.56z M147.43,129.93l-3.21-1.85l3.21-1.85V129.93z M147.43,122.59l-3.21-1.85l3.21-1.85
		V122.59z M149.53,118.88l3.21,1.85l-3.21,1.85V118.88z M149.53,129.93v-3.7l3.21,1.85L149.53,129.93z M153.79,126.26l-3.21-1.85
		l3.21-1.85V126.26z"/>
	<path class="st2" d="M138.98,124.41c0,0.69-0.56,1.25-1.25,1.25c-0.69,0-1.25-0.56-1.25-1.25s0.56-1.25,1.25-1.25
		C138.42,123.16,138.98,123.72,138.98,124.41z"/>
	<path class="st1" d="M160.49,124.41c0,0.69-0.56,1.25-1.25,1.25s-1.25-0.56-1.25-1.25s0.56-1.25,1.25-1.25
		S160.49,123.72,160.49,124.41z"/>
	<path class="st1" d="M155.37,134.28c0,0.69-0.56,1.25-1.25,1.25c-0.69,0-1.25-0.56-1.25-1.25c0-0.69,0.56-1.25,1.25-1.25
		C154.81,133.03,155.37,133.59,155.37,134.28z"/>
	<path class="st2" d="M144.1,134.28c0,0.69-0.56,1.25-1.25,1.25c-0.69,0-1.25-0.56-1.25-1.25c0-0.69,0.56-1.25,1.25-1.25
		C143.54,133.03,144.1,133.59,144.1,134.28z"/>
	<path class="st1" d="M163.24,128.14l-4.23,1.13l-3.11-1.8v-6.13l3.11-1.8l4.23,1.13c0.56,0.15,1.14-0.18,1.29-0.74
		c0.15-0.56-0.18-1.14-0.74-1.29l-2.2-0.59l1.74-1c0.5-0.29,0.67-0.93,0.38-1.44c-0.29-0.5-0.93-0.67-1.44-0.38l-1.74,1l0.59-2.2
		c0.15-0.56-0.18-1.14-0.74-1.29c-0.56-0.15-1.14,0.18-1.29,0.74l-1.13,4.23l-3.11,1.8l-5.31-3.07v-3.59l3.1-3.1
		c0.41-0.41,0.41-1.08,0-1.49c-0.41-0.41-1.08-0.41-1.49,0l-1.61,1.61v-2.01c0-0.58-0.47-1.05-1.05-1.05v35.15
		c0.58,0,1.05-0.47,1.05-1.05v-2.01l1.61,1.61c0.41,0.41,1.08,0.41,1.49,0c0.41-0.41,0.41-1.08,0-1.49l-3.1-3.1v-3.59l5.31-3.07
		l3.11,1.8l1.13,4.23c0.15,0.56,0.73,0.89,1.29,0.74c0.56-0.15,0.89-0.73,0.74-1.29l-0.59-2.2l1.74,1c0.5,0.29,1.15,0.12,1.44-0.38
		c0.29-0.5,0.12-1.15-0.38-1.44l-1.74-1l2.2-0.59c0.56-0.15,0.89-0.73,0.74-1.29C164.38,128.32,163.8,127.99,163.24,128.14z
		 M149.53,118.88l3.21,1.85l-3.21,1.85V118.88z M149.53,129.93v-3.7l3.21,1.85L149.53,129.93z M153.79,126.26l-3.21-1.85l3.21-1.85
		V126.26z"/>
</g>
</svg>
