<?xml version="1.0" encoding="utf-8"?>
<!-- Generator: Adobe Illustrator 22.0.1, SVG Export Plug-In . SVG Version: 6.00 Build 0)  -->
<svg version="1.1" id="Layer_1" xmlns="http://www.w3.org/2000/svg" xmlns:xlink="http://www.w3.org/1999/xlink" x="0px" y="0px"
	 viewBox="0 0 50.9 42.5" style="enable-background:new 0 0 50.9 42.5;" xml:space="preserve">
<g id="_x33_4">
	<path d="M19.5,32.8l-0.9-0.5l0.9-0.5c0.3-0.2,0.4-0.6,0.2-0.9c-0.2-0.3-0.6-0.4-0.9-0.2L17.9,31v-1.1c0-0.4-0.3-0.7-0.7-0.7
		c-0.4,0-0.7,0.3-0.7,0.7V31l-0.9-0.5c-0.3-0.2-0.7-0.1-0.9,0.2s-0.1,0.7,0.2,0.9l0.9,0.5l-0.9,0.5c-0.3,0.2-0.4,0.6-0.2,0.9
		c0.2,0.3,0.6,0.4,0.9,0.2l0.9-0.5v1.1c0,0.4,0.3,0.7,0.7,0.7c0.4,0,0.7-0.3,0.7-0.7v-1.1l0.9,0.5c0.3,0.2,0.7,0.1,0.9-0.2
		C20,33.4,19.9,32.9,19.5,32.8z"/>
	<path d="M28,32.8l-0.9-0.5l0.9-0.5c0.3-0.2,0.4-0.6,0.3-0.9c-0.2-0.3-0.6-0.4-0.9-0.2L26.4,31v-1.1c0-0.4-0.3-0.7-0.7-0.7
		S25,29.6,25,29.9V31l-0.9-0.5c-0.3-0.2-0.7-0.1-0.9,0.2c-0.2,0.3-0.1,0.7,0.2,0.9l0.9,0.5l-0.9,0.5c-0.3,0.2-0.4,0.6-0.2,0.9
		c0.2,0.3,0.6,0.4,0.9,0.2l0.9-0.5v1.1c0,0.4,0.3,0.7,0.7,0.7s0.7-0.3,0.7-0.7v-1.1l0.9,0.5c0.3,0.2,0.7,0.1,0.9-0.2
		C28.5,33.4,28.4,32.9,28,32.8z"/>
	<path d="M24,40.1L23,39.6L24,39c0.3-0.2,0.4-0.6,0.2-0.9c-0.2-0.3-0.6-0.4-0.9-0.2l-0.9,0.5v-1.1c0-0.4-0.3-0.7-0.7-0.7
		c-0.4,0-0.7,0.3-0.7,0.7v1.1L20,37.9c-0.3-0.2-0.7-0.1-0.9,0.2c-0.2,0.3-0.1,0.7,0.2,0.9l0.9,0.5l-0.9,0.5
		c-0.3,0.2-0.4,0.6-0.2,0.9c0.2,0.3,0.6,0.4,0.9,0.2l0.9-0.5v1.1c0,0.4,0.3,0.7,0.7,0.7c0.4,0,0.7-0.3,0.7-0.7v-1.1l0.9,0.5
		c0.3,0.2,0.7,0.1,0.9-0.2C24.4,40.7,24.3,40.3,24,40.1z"/>
	<path d="M28.5,11.6c-1.4-0.3-2.7-0.2-3.3,0c-2-2-5.4-3.5-8.8-3.5c-6.7,0-12.2,5.2-12.7,11.8C1.5,21.2,0,23.6,0,26.3
		c0,4.1,3.3,7.4,7.4,7.4h2.7c0.7,0,1.2-0.7,1.2-1.4c0-0.8-0.6-1.4-1.4-1.4H8c-2.7,0-4.8-2-4.8-4.6c0-2.1,1.3-3.9,3.4-4.6
		c0.2-9.9,9-10.4,9.9-10.4c2.9,0,5.7,1.4,7.6,3.5c3.7-1.2,8.8,1.6,8.2,7.2c1.5-0.6,2.9-0.5,3.3-0.5c2.1,0,4.6,1.8,4.6,4.8
		c0,2.5-2.1,4.6-4.6,4.6h-2.8c-0.8,0-1.4,0.6-1.4,1.4s0.6,1.4,1.4,1.4h2.8c4.2,0,7.6-3.4,7.6-7.6c0,0,0-1-0.4-2.2
		c2.8-0.5,5.3-2,7.1-4.1c2.4-2.7-0.3-2.6-1.2-2.8c-5.4-0.7-12.7-6.3-10-15.2c0.6-1.9-0.5-1.9-1.3-1.7C37.4,0.1,29,2,28.5,11.6z
		 M35.6,3.9c-1.2,6.4,3.9,14.3,11.1,15.1c-1.4,1.1-3.2,1.9-5.1,2.1c-1.1-1.4-3-2.6-6.2-2.6c-0.7-3-2.3-4.7-4-5.8
		C30.9,7.8,34,4.9,35.6,3.9z"/>
</g>
</svg>
