<?xml version="1.0" encoding="utf-8"?>
<!-- Generator: Adobe Illustrator 22.0.1, SVG Export Plug-In . SVG Version: 6.00 Build 0)  -->
<svg version="1.1" id="Layer_1" xmlns="http://www.w3.org/2000/svg" xmlns:xlink="http://www.w3.org/1999/xlink" x="0px" y="0px"
	 viewBox="0 0 43.2 36.6" style="enable-background:new 0 0 43.2 36.6;" xml:space="preserve">
<g id="_x30_8">
	<path d="M10.6,31.4c0.8,0,1.5-0.7,1.5-1.5s-0.7-1.5-1.5-1.5H5.1c-0.8,0-1.5,0.7-1.5,1.5s0.7,1.5,1.5,1.5H10.6z"/>
	<path d="M21.7,31.4c0.8,0,1.5-0.7,1.5-1.5s-0.7-1.5-1.5-1.5h-5.5c-0.8,0-1.5,0.7-1.5,1.5s0.7,1.5,1.5,1.5H21.7z"/>
	<path d="M32.8,31.4c0.8,0,1.5-0.7,1.5-1.5s-0.7-1.5-1.5-1.5h-5.5c-0.8,0-1.5,0.7-1.5,1.5s0.7,1.5,1.5,1.5H32.8z"/>
	<path d="M16.2,36.6c0.8,0,1.5-0.7,1.5-1.5s-0.7-1.5-1.5-1.5h-5.5c-0.8,0-1.5,0.7-1.5,1.5s0.7,1.5,1.5,1.5H16.2z"/>
	<path d="M27.2,36.6c0.8,0,1.5-0.7,1.5-1.5c0-0.8-0.7-1.5-1.5-1.5h-5.5c-0.8,0-1.5,0.7-1.5,1.5s0.7,1.5,1.5,1.5H27.2z"/>
	<path d="M38.3,36.6c0.8,0,1.5-0.7,1.5-1.5s-0.7-1.5-1.5-1.5h-5.5c-0.8,0-1.5,0.7-1.5,1.5s0.7,1.5,1.5,1.5H38.3z"/>
	<path d="M35.6,25.5c4.2,0,7.5-3.4,7.5-7.5c0,0,0-7.5-7.9-7.5C33.6,3.3,27,3,25.1,3.5c-2-2-5.4-3.5-8.7-3.5C9.7,0,4.2,5.2,3.7,11.8
		C1.5,13,0,15.4,0,18.1c0,4.1,3.3,7.3,7.3,7.3H35.6z M8,22.7c-2.7,0-4.8-2-4.8-4.5c0-2.1,1.3-3.9,3.4-4.6c0.2-9.9,8.9-10.4,9.9-10.4
		c2.9,0,5.7,1.4,7.6,3.5c3.7-1.2,8.8,1.6,8.2,7.2c1.4-0.6,2.9-0.5,3.3-0.5c2.1,0,4.6,1.8,4.6,4.8c0,2.5-2.1,4.6-4.6,4.6L8,22.7
		L8,22.7z"/>
</g>
</svg>
