<?xml version="1.0" encoding="utf-8"?>
<!-- Generator: Adobe Illustrator 23.0.0, SVG Export Plug-In . SVG Version: 6.00 Build 0)  -->
<svg version="1.1" id="Layer_1" xmlns="http://www.w3.org/2000/svg" xmlns:xlink="http://www.w3.org/1999/xlink" x="0px" y="0px"
	 viewBox="0 0 300 200" style="enable-background:new 0 0 300 200;" xml:space="preserve">
<style type="text/css">
	.st0{fill:#E7BF1B;}
	.st1{fill:#EADD1A;}
</style>
<g>
	<path class="st0" d="M190.16,35.91c-6.88-6.88-14.69-12.25-23.03-16.12c19.95,31.15,16.32,73.03-10.91,100.27
		c-24.56,24.56-61.04,29.93-90.81,16.12c3.08,4.81,6.7,9.37,10.91,13.58c31.44,31.44,82.41,31.44,113.84,0
		S221.59,67.34,190.16,35.91z"/>
	<path class="st1" d="M186.16,31.91c-6.88-6.88-14.69-12.25-23.03-16.12c19.95,31.15,16.32,73.03-10.91,100.27
		c-24.56,24.56-61.04,29.93-90.81,16.12c3.08,4.81,6.7,9.37,10.91,13.58c31.44,31.44,82.41,31.44,113.84,0
		S217.59,63.34,186.16,31.91z"/>
</g>
</svg>
