<?xml version="1.0" encoding="utf-8"?>
<!-- Generator: Adobe Illustrator 23.0.0, SVG Export Plug-In . SVG Version: 6.00 Build 0)  -->
<svg version="1.1" id="Layer_1" xmlns="http://www.w3.org/2000/svg" xmlns:xlink="http://www.w3.org/1999/xlink" x="0px" y="0px"
	 viewBox="0 0 300 200" style="enable-background:new 0 0 300 200;" xml:space="preserve">
<style type="text/css">
	.st0{fill:#E7BF1B;}
	.st1{fill:#EADD1A;}
	.st2{fill:#474B4C;}
	.st3{fill:#AFF2FF;}
	.st4{fill:#86EAFF;}
	.st5{fill:#0ED3FF;}
</style>
<g>
	<path class="st0" d="M215.66,79.58c13.97,13.98,36.63,13.98,50.61,0c1.87-1.87,3.48-3.9,4.85-6.04
		c-13.24,6.14-29.45,3.75-40.37-7.17c-12.11-12.11-13.72-30.73-4.85-44.58c-3.71,1.72-7.18,4.11-10.24,7.17
		C201.68,42.94,201.68,65.6,215.66,79.58z"/>
	<path class="st1" d="M217.44,77.8c13.97,13.98,36.63,13.98,50.61,0c1.87-1.87,3.48-3.9,4.85-6.04
		c-13.24,6.14-29.45,3.75-40.37-7.17c-12.11-12.11-13.72-30.73-4.85-44.58c-3.71,1.72-7.18,4.11-10.24,7.17
		C203.46,41.16,203.46,63.82,217.44,77.8z"/>
</g>
<path class="st2" d="M259.42,113.24c0-10.65-8.63-19.28-19.28-19.28c-0.91,0-1.8,0.09-2.68,0.21c0.91-2.24,1.42-4.67,1.42-7.23
	c0-10.65-8.63-19.28-19.28-19.28c-1,0-1.98,0.1-2.95,0.25c-1.9-21.48-19.93-38.33-41.9-38.33c-11.43,0-21.79,4.57-29.38,11.97
	C110.6,43.67,81.1,65.29,67.66,95.62c-2.39-1.06-5.02-1.66-7.8-1.66c-10.65,0-19.28,8.63-19.28,19.28s8.63,19.28,19.28,19.28h182.31
	c0-0.04,0-0.07,0-0.11C251.86,131.4,259.42,123.2,259.42,113.24z"/>
<g>
	<path class="st3" d="M118.26,132.43l-5.95-10.45l-7.46-13.09c-0.87-1.53-3.41-1.53-4.28,0l-7.46,13.09l-5.95,10.45
		c-1.93,2.53-3.06,5.56-3.06,8.81c0,8.86,8.33,16.05,18.61,16.05s18.61-7.19,18.61-16.05C121.32,137.99,120.19,134.96,118.26,132.43
		z"/>
	<path class="st4" d="M116.72,131.37l-5.36-9.41l-6.72-11.79c-0.79-1.38-3.07-1.38-3.85,0l-6.72,11.79l-5.36,9.41
		c-1.74,2.28-2.75,5-2.75,7.93c0,7.98,7.5,14.45,16.76,14.45s16.76-6.47,16.76-14.45C119.47,136.37,118.46,133.65,116.72,131.37z"/>
	<path class="st5" d="M114.32,130.11l-4.44-7.8l-5.57-9.78c-0.65-1.14-2.54-1.14-3.19,0l-5.57,9.78l-4.44,7.8
		c-1.44,1.89-2.28,4.15-2.28,6.58c0,6.62,6.22,11.98,13.89,11.98s13.89-5.36,13.89-11.98C116.6,134.26,115.76,132,114.32,130.11z"/>
</g>
<g>
	<path class="st3" d="M201.4,139.67l-7.36-12.92l-9.23-16.19c-1.08-1.89-4.21-1.89-5.29,0l-9.23,16.19l-7.36,12.92
		c-2.39,3.13-3.78,6.87-3.78,10.9c0,10.96,10.3,19.85,23.01,19.85c12.71,0,23.01-8.89,23.01-19.85
		C205.18,146.54,203.78,142.8,201.4,139.67z"/>
	<path class="st4" d="M199.49,138.35l-6.63-11.64l-8.31-14.58c-0.97-1.71-3.79-1.71-4.76,0l-8.31,14.58l-6.63,11.64
		c-2.15,2.82-3.4,6.19-3.4,9.81c0,9.87,9.28,17.88,20.72,17.88c11.45,0,20.72-8,20.72-17.88
		C202.89,144.54,201.63,141.17,199.49,138.35z"/>
	<path class="st5" d="M196.52,136.8l-5.5-9.65l-6.89-12.09c-0.81-1.41-3.14-1.41-3.95,0l-6.89,12.09l-5.5,9.65
		c-1.78,2.34-2.82,5.13-2.82,8.13c0,8.18,7.69,14.82,17.18,14.82s17.18-6.63,17.18-14.82C199.34,141.93,198.3,139.13,196.52,136.8z"
		/>
</g>
<g>
	<path class="st3" d="M151.44,131.4l-2.98-5.23l-3.73-6.55c-0.44-0.77-1.7-0.77-2.14,0l-3.73,6.55l-2.98,5.23
		c-0.96,1.26-1.53,2.78-1.53,4.41c0,4.43,4.17,8.02,9.3,8.02c5.14,0,9.3-3.59,9.3-8.02C152.96,134.18,152.4,132.67,151.44,131.4z"/>
	<path class="st4" d="M150.66,130.87l-2.68-4.71l-3.36-5.9c-0.39-0.69-1.53-0.69-1.93,0l-3.36,5.9l-2.68,4.71
		c-0.87,1.14-1.38,2.5-1.38,3.97c0,3.99,3.75,7.23,8.38,7.23c4.63,0,8.38-3.24,8.38-7.23C152.04,133.37,151.53,132.01,150.66,130.87
		z"/>
	<path class="st5" d="M149.46,130.24l-2.22-3.9l-2.78-4.89c-0.33-0.57-1.27-0.57-1.6,0l-2.78,4.89l-2.22,3.9
		c-0.72,0.94-1.14,2.07-1.14,3.29c0,3.31,3.11,5.99,6.95,5.99s6.95-2.68,6.95-5.99C150.6,132.31,150.18,131.18,149.46,130.24z"/>
</g>
<g>
	<path class="st3" d="M230.49,133.85l-3.82-6.7l-4.78-8.4c-0.56-0.98-2.18-0.98-2.74,0l-4.78,8.4l-3.82,6.7
		c-1.24,1.62-1.96,3.56-1.96,5.65c0,5.68,5.34,10.29,11.93,10.29s11.93-4.61,11.93-10.29C232.45,137.42,231.73,135.48,230.49,133.85
		z"/>
	<path class="st4" d="M229.5,133.17l-3.44-6.04l-4.31-7.56c-0.5-0.88-1.97-0.88-2.47,0l-4.31,7.56l-3.44,6.04
		c-1.11,1.46-1.77,3.21-1.77,5.09c0,5.12,4.81,9.27,10.75,9.27c5.93,0,10.75-4.15,10.75-9.27
		C231.27,136.38,230.62,134.63,229.5,133.17z"/>
	<path class="st5" d="M227.96,132.36l-2.85-5l-3.57-6.27c-0.42-0.73-1.63-0.73-2.05,0l-3.57,6.27l-2.85,5
		c-0.92,1.21-1.46,2.66-1.46,4.22c0,4.24,3.99,7.68,8.91,7.68s8.91-3.44,8.91-7.68C229.43,135.02,228.89,133.58,227.96,132.36z"/>
</g>
</svg>
