<?xml version="1.0" encoding="utf-8"?>
<!-- Generator: Adobe Illustrator 23.0.0, SVG Export Plug-In . SVG Version: 6.00 Build 0)  -->
<svg version="1.1" id="Layer_1" xmlns="http://www.w3.org/2000/svg" xmlns:xlink="http://www.w3.org/1999/xlink" x="0px" y="0px"
	 viewBox="0 0 300 200" style="enable-background:new 0 0 300 200;" xml:space="preserve">
<style type="text/css">
	.st0{fill:#E7BF1B;}
	.st1{fill:#EADD1A;}
	.st2{fill:#3A3A3A;}
	.st3{fill:#5ECEF4;}
	.st4{fill:#7ED8F6;}
</style>
<g>
	<path class="st0" d="M212.1,81.44c12.26,12.26,32.14,12.26,44.41,0c1.64-1.64,3.05-3.42,4.26-5.3
		c-11.61,5.39-25.84,3.29-35.42-6.29c-10.62-10.63-12.04-26.96-4.26-39.11c-3.25,1.51-6.3,3.6-8.98,6.29
		C199.84,49.29,199.84,69.18,212.1,81.44z"/>
	<path class="st1" d="M213.66,79.88c12.26,12.26,32.14,12.26,44.41,0c1.64-1.64,3.05-3.42,4.26-5.3
		c-11.61,5.39-25.84,3.29-35.42-6.29c-10.62-10.63-12.04-26.96-4.26-39.11c-3.25,1.51-6.3,3.6-8.98,6.29
		C201.4,47.73,201.4,67.62,213.66,79.88z"/>
</g>
<path class="st2" d="M258.46,120.97c0-10.65-8.63-19.28-19.28-19.28c-0.91,0-1.8,0.09-2.68,0.21c0.91-2.24,1.42-4.67,1.42-7.23
	c0-10.65-8.63-19.28-19.28-19.28c-1,0-1.98,0.1-2.95,0.25c-1.9-21.48-19.93-38.33-41.9-38.33c-11.43,0-21.79,4.57-29.38,11.97
	c-34.78,2.12-64.28,23.74-77.73,54.07c-2.39-1.06-5.02-1.66-7.8-1.66c-10.65,0-19.28,8.63-19.28,19.28s8.63,19.28,19.28,19.28H241.2
	c0-0.04,0-0.07,0-0.11C250.9,139.14,258.46,130.94,258.46,120.97z"/>
<path class="st3" d="M128.66,139.11c0,0.69-0.56,1.25-1.25,1.25c-0.69,0-1.25-0.56-1.25-1.25c0-0.69,0.56-1.25,1.25-1.25
	C128.1,137.85,128.66,138.41,128.66,139.11z"/>
<path class="st4" d="M117.39,139.11c0,0.69-0.56,1.25-1.25,1.25s-1.25-0.56-1.25-1.25c0-0.69,0.56-1.25,1.25-1.25
	S117.39,138.41,117.39,139.11z"/>
<g>
	<path class="st4" d="M120.85,158.35l-5.35,1.43l-3.94-2.27v-7.75l3.94-2.27l5.35,1.43c0.71,0.19,1.44-0.23,1.63-0.94
		c0.19-0.71-0.23-1.44-0.94-1.63l-2.79-0.75l2.2-1.27c0.64-0.37,0.85-1.18,0.49-1.82c-0.37-0.64-1.18-0.85-1.82-0.49l-2.2,1.27
		l0.75-2.79c0.19-0.71-0.23-1.44-0.94-1.63c-0.71-0.19-1.44,0.23-1.63,0.94l-1.43,5.35l-3.94,2.27l-6.71-3.88v-4.54l3.92-3.92
		c0.52-0.52,0.52-1.36,0-1.88c-0.52-0.52-1.36-0.52-1.88,0l-2.04,2.04v-2.54c0-0.73-0.6-1.33-1.33-1.33c-0.73,0-1.33,0.6-1.33,1.33
		v2.54l-2.04-2.04c-0.52-0.52-1.36-0.52-1.88,0c-0.52,0.52-0.52,1.36,0,1.88l3.92,3.92v4.54l-6.71,3.88l-3.94-2.27l-1.43-5.35
		c-0.19-0.71-0.92-1.13-1.63-0.94c-0.71,0.19-1.13,0.92-0.94,1.63l0.75,2.79l-2.2-1.27c-0.64-0.37-1.45-0.15-1.82,0.49
		c-0.37,0.64-0.15,1.45,0.49,1.82l2.2,1.27l-2.79,0.75c-0.71,0.19-1.13,0.92-0.94,1.63c0.19,0.71,0.92,1.13,1.63,0.94l5.35-1.43
		l3.94,2.27v7.75l-3.94,2.27l-5.35-1.43c-0.71-0.19-1.44,0.23-1.63,0.94c-0.19,0.71,0.23,1.44,0.94,1.63l2.79,0.75l-2.2,1.27
		c-0.64,0.37-0.85,1.18-0.49,1.82c0.37,0.64,1.18,0.85,1.82,0.49l2.2-1.27l-0.75,2.79c-0.19,0.71,0.23,1.44,0.94,1.63
		c0.71,0.19,1.44-0.23,1.63-0.94l1.43-5.35l3.94-2.27l6.71,3.88v4.54l-3.92,3.92c-0.52,0.52-0.52,1.36,0,1.88
		c0.52,0.52,1.36,0.52,1.88,0l2.04-2.04v2.54c0,0.73,0.6,1.33,1.33,1.33c0.73,0,1.33-0.6,1.33-1.33v-2.54l2.04,2.04
		c0.52,0.52,1.36,0.52,1.88,0c0.52-0.52,0.52-1.36,0-1.88l-3.92-3.92v-4.54l6.71-3.88l3.94,2.27l1.43,5.35
		c0.19,0.71,0.92,1.13,1.63,0.94c0.71-0.19,1.13-0.92,0.94-1.63l-0.75-2.79l2.2,1.27c0.64,0.37,1.45,0.15,1.82-0.49
		c0.37-0.64,0.15-1.45-0.49-1.82l-2.2-1.27l2.79-0.75c0.71-0.19,1.13-0.92,0.94-1.63C122.28,158.58,121.56,158.16,120.85,158.35z
		 M95.47,151.29l4.06,2.34l-4.06,2.34V151.29z M100.86,160.62l-4.06-2.34l4.06-2.34V160.62z M100.86,151.33l-4.06-2.34l4.06-2.34
		V151.33z M103.51,146.65l4.06,2.34l-4.06,2.34V146.65z M103.51,160.62v-4.68l4.06,2.34L103.51,160.62z M108.9,155.98l-4.06-2.34
		l4.06-2.34V155.98z"/>
	<path class="st4" d="M90.17,153.63c0,0.87-0.71,1.58-1.58,1.58S87,154.51,87,153.63s0.71-1.58,1.58-1.58S90.17,152.76,90.17,153.63
		z"/>
	<path class="st3" d="M117.37,153.63c0,0.87-0.71,1.58-1.58,1.58s-1.58-0.71-1.58-1.58s0.71-1.58,1.58-1.58
		S117.37,152.76,117.37,153.63z"/>
	<path class="st3" d="M110.89,166.12c0,0.87-0.71,1.58-1.58,1.58s-1.58-0.71-1.58-1.58s0.71-1.58,1.58-1.58
		S110.89,165.24,110.89,166.12z"/>
	<path class="st4" d="M96.64,166.12c0,0.87-0.71,1.58-1.58,1.58s-1.58-0.71-1.58-1.58s0.71-1.58,1.58-1.58
		S96.64,165.24,96.64,166.12z"/>
	<path class="st3" d="M120.85,158.35l-5.35,1.43l-3.94-2.27v-7.75l3.94-2.27l5.35,1.43c0.71,0.19,1.44-0.23,1.63-0.94
		c0.19-0.71-0.23-1.44-0.94-1.63l-2.79-0.75l2.2-1.27c0.64-0.37,0.85-1.18,0.49-1.82c-0.37-0.64-1.18-0.85-1.82-0.49l-2.2,1.27
		l0.75-2.79c0.19-0.71-0.23-1.44-0.94-1.63c-0.71-0.19-1.44,0.23-1.63,0.94l-1.43,5.35l-3.94,2.27l-6.71-3.88v-4.54l3.92-3.92
		c0.52-0.52,0.52-1.36,0-1.88c-0.52-0.52-1.36-0.52-1.88,0l-2.04,2.04v-2.54c0-0.73-0.6-1.33-1.33-1.33v44.45
		c0.73,0,1.33-0.6,1.33-1.33v-2.54l2.04,2.04c0.52,0.52,1.36,0.52,1.88,0c0.52-0.52,0.52-1.36,0-1.88l-3.92-3.92v-4.54l6.71-3.88
		l3.94,2.27l1.43,5.35c0.19,0.71,0.92,1.13,1.63,0.94c0.71-0.19,1.13-0.92,0.94-1.63l-0.75-2.79l2.2,1.27
		c0.64,0.37,1.45,0.15,1.82-0.49c0.37-0.64,0.15-1.45-0.49-1.82l-2.2-1.27l2.79-0.75c0.71-0.19,1.13-0.92,0.94-1.63
		C122.28,158.58,121.56,158.16,120.85,158.35z M103.51,146.65l4.06,2.34l-4.06,2.34V146.65z M103.51,160.62v-4.68l4.06,2.34
		L103.51,160.62z M108.9,155.98l-4.06-2.34l4.06-2.34V155.98z"/>
</g>
<g>
	<path class="st4" d="M221.22,148.54l-5.35,1.43l-3.94-2.27v-7.75l3.94-2.27l5.35,1.43c0.71,0.19,1.44-0.23,1.63-0.94
		c0.19-0.71-0.23-1.44-0.94-1.63l-2.79-0.75l2.2-1.27c0.64-0.37,0.85-1.18,0.49-1.82c-0.37-0.64-1.18-0.85-1.82-0.49l-2.2,1.27
		l0.75-2.79c0.19-0.71-0.23-1.44-0.94-1.63c-0.71-0.19-1.44,0.23-1.63,0.94l-1.43,5.35l-3.94,2.27l-6.71-3.88v-4.54l3.92-3.92
		c0.52-0.52,0.52-1.36,0-1.88c-0.52-0.52-1.36-0.52-1.88,0l-2.04,2.04v-2.54c0-0.73-0.6-1.33-1.33-1.33c-0.73,0-1.33,0.6-1.33,1.33
		v2.54l-2.04-2.04c-0.52-0.52-1.36-0.52-1.88,0c-0.52,0.52-0.52,1.36,0,1.88l3.92,3.92v4.54l-6.71,3.88l-3.94-2.27l-1.43-5.35
		c-0.19-0.71-0.92-1.13-1.63-0.94c-0.71,0.19-1.13,0.92-0.94,1.63l0.75,2.79l-2.2-1.27c-0.64-0.37-1.45-0.15-1.82,0.49
		c-0.37,0.64-0.15,1.45,0.49,1.82l2.2,1.27l-2.79,0.75c-0.71,0.19-1.13,0.92-0.94,1.63c0.19,0.71,0.92,1.13,1.63,0.94l5.35-1.43
		l3.94,2.27v7.75l-3.94,2.27l-5.35-1.43c-0.71-0.19-1.44,0.23-1.63,0.94c-0.19,0.71,0.23,1.44,0.94,1.63l2.79,0.75l-2.2,1.27
		c-0.64,0.37-0.85,1.18-0.49,1.82c0.37,0.64,1.18,0.85,1.82,0.49l2.2-1.27l-0.75,2.79c-0.19,0.71,0.23,1.44,0.94,1.63
		c0.71,0.19,1.44-0.23,1.63-0.94l1.43-5.35l3.94-2.27l6.71,3.88v4.54l-3.92,3.92c-0.52,0.52-0.52,1.36,0,1.88
		c0.52,0.52,1.36,0.52,1.88,0l2.04-2.04v2.54c0,0.73,0.6,1.33,1.33,1.33c0.73,0,1.33-0.6,1.33-1.33v-2.54l2.04,2.04
		c0.52,0.52,1.36,0.52,1.88,0c0.52-0.52,0.52-1.36,0-1.88l-3.92-3.92v-4.54l6.71-3.88l3.94,2.27l1.43,5.35
		c0.19,0.71,0.92,1.13,1.63,0.94c0.71-0.19,1.13-0.92,0.94-1.63l-0.75-2.79l2.2,1.27c0.64,0.37,1.45,0.15,1.82-0.49
		c0.37-0.64,0.15-1.45-0.49-1.82l-2.2-1.27l2.79-0.75c0.71-0.19,1.13-0.92,0.94-1.63C222.66,148.77,221.93,148.34,221.22,148.54z
		 M195.84,141.48l4.06,2.34l-4.06,2.34V141.48z M201.23,150.81l-4.06-2.34l4.06-2.34V150.81z M201.23,141.52l-4.06-2.34l4.06-2.34
		V141.52z M203.88,136.83l4.06,2.34l-4.06,2.34V136.83z M203.88,150.81v-4.68l4.06,2.34L203.88,150.81z M209.27,146.16l-4.06-2.34
		l4.06-2.34V146.16z"/>
	<path class="st4" d="M190.54,143.82c0,0.87-0.71,1.58-1.58,1.58s-1.58-0.71-1.58-1.58s0.71-1.58,1.58-1.58
		S190.54,142.95,190.54,143.82z"/>
	<path class="st3" d="M217.74,143.82c0,0.87-0.71,1.58-1.58,1.58s-1.58-0.71-1.58-1.58s0.71-1.58,1.58-1.58
		S217.74,142.95,217.74,143.82z"/>
	<path class="st3" d="M211.26,156.3c0,0.87-0.71,1.58-1.58,1.58s-1.58-0.71-1.58-1.58s0.71-1.58,1.58-1.58
		S211.26,155.43,211.26,156.3z"/>
	<path class="st4" d="M197.01,156.3c0,0.87-0.71,1.58-1.58,1.58s-1.58-0.71-1.58-1.58s0.71-1.58,1.58-1.58
		S197.01,155.43,197.01,156.3z"/>
	<path class="st3" d="M221.22,148.54l-5.35,1.43l-3.94-2.27v-7.75l3.94-2.27l5.35,1.43c0.71,0.19,1.44-0.23,1.63-0.94
		c0.19-0.71-0.23-1.44-0.94-1.63l-2.79-0.75l2.2-1.27c0.64-0.37,0.85-1.18,0.49-1.82c-0.37-0.64-1.18-0.85-1.82-0.49l-2.2,1.27
		l0.75-2.79c0.19-0.71-0.23-1.44-0.94-1.63c-0.71-0.19-1.44,0.23-1.63,0.94l-1.43,5.35l-3.94,2.27l-6.71-3.88v-4.54l3.92-3.92
		c0.52-0.52,0.52-1.36,0-1.88c-0.52-0.52-1.36-0.52-1.88,0l-2.04,2.04v-2.54c0-0.73-0.6-1.33-1.33-1.33v44.45
		c0.73,0,1.33-0.6,1.33-1.33v-2.54l2.04,2.04c0.52,0.52,1.36,0.52,1.88,0c0.52-0.52,0.52-1.36,0-1.88l-3.92-3.92v-4.54l6.71-3.88
		l3.94,2.27l1.43,5.35c0.19,0.71,0.92,1.13,1.63,0.94c0.71-0.19,1.13-0.92,0.94-1.63l-0.75-2.79l2.2,1.27
		c0.64,0.37,1.45,0.15,1.82-0.49c0.37-0.64,0.15-1.45-0.49-1.82l-2.2-1.27l2.79-0.75c0.71-0.19,1.13-0.92,0.94-1.63
		C222.66,148.77,221.93,148.34,221.22,148.54z M203.88,136.83l4.06,2.34l-4.06,2.34V136.83z M203.88,150.81v-4.68l4.06,2.34
		L203.88,150.81z M209.27,146.16l-4.06-2.34l4.06-2.34V146.16z"/>
</g>
<g>
	<path class="st4" d="M166.68,130.08l-4.23,1.13l-3.11-1.8v-6.13l3.11-1.8l4.23,1.13c0.56,0.15,1.14-0.18,1.29-0.74
		c0.15-0.56-0.18-1.14-0.74-1.29l-2.2-0.59l1.74-1c0.5-0.29,0.67-0.93,0.38-1.44c-0.29-0.5-0.93-0.67-1.44-0.38l-1.74,1l0.59-2.2
		c0.15-0.56-0.18-1.14-0.74-1.29c-0.56-0.15-1.14,0.18-1.29,0.74l-1.13,4.23l-3.11,1.8l-5.31-3.07v-3.59l3.1-3.1
		c0.41-0.41,0.41-1.08,0-1.49c-0.41-0.41-1.08-0.41-1.49,0l-1.61,1.61v-2.01c0-0.58-0.47-1.05-1.05-1.05
		c-0.58,0-1.05,0.47-1.05,1.05v2.01l-1.61-1.61c-0.41-0.41-1.08-0.41-1.49,0c-0.41,0.41-0.41,1.08,0,1.49l3.1,3.1v3.59l-5.31,3.07
		l-3.11-1.8l-1.13-4.23c-0.15-0.56-0.73-0.89-1.29-0.74c-0.56,0.15-0.89,0.73-0.74,1.29l0.59,2.2l-1.74-1
		c-0.5-0.29-1.15-0.12-1.44,0.38c-0.29,0.5-0.12,1.15,0.38,1.44l1.74,1l-2.2,0.59c-0.56,0.15-0.89,0.73-0.74,1.29
		c0.15,0.56,0.73,0.89,1.29,0.74l4.23-1.13l3.11,1.8v6.13l-3.11,1.8l-4.23-1.13c-0.56-0.15-1.14,0.18-1.29,0.74
		c-0.15,0.56,0.18,1.14,0.74,1.29l2.2,0.59l-1.74,1c-0.5,0.29-0.67,0.93-0.38,1.44c0.29,0.5,0.93,0.67,1.44,0.38l1.74-1l-0.59,2.2
		c-0.15,0.56,0.18,1.14,0.74,1.29c0.56,0.15,1.14-0.18,1.29-0.74l1.13-4.23l3.11-1.8l5.31,3.07v3.59l-3.1,3.1
		c-0.41,0.41-0.41,1.08,0,1.49c0.41,0.41,1.08,0.41,1.49,0l1.61-1.61v2.01c0,0.58,0.47,1.05,1.05,1.05c0.58,0,1.05-0.47,1.05-1.05
		v-2.01l1.61,1.61c0.41,0.41,1.08,0.41,1.49,0c0.41-0.41,0.41-1.08,0-1.49l-3.1-3.1v-3.59l5.31-3.07l3.11,1.8l1.13,4.23
		c0.15,0.56,0.73,0.89,1.29,0.74c0.56-0.15,0.89-0.73,0.74-1.29l-0.59-2.2l1.74,1c0.5,0.29,1.15,0.12,1.44-0.38
		c0.29-0.5,0.12-1.15-0.38-1.44l-1.74-1l2.2-0.59c0.56-0.15,0.89-0.73,0.74-1.29C167.81,130.26,167.24,129.93,166.68,130.08z
		 M146.61,124.5l3.21,1.85l-3.21,1.85V124.5z M150.87,131.88l-3.21-1.85l3.21-1.85V131.88z M150.87,124.53l-3.21-1.85l3.21-1.85
		V124.53z M152.97,120.83l3.21,1.85l-3.21,1.85V120.83z M152.97,131.88v-3.7l3.21,1.85L152.97,131.88z M157.23,128.21l-3.21-1.85
		l3.21-1.85V128.21z"/>
	<path class="st4" d="M142.41,126.35c0,0.69-0.56,1.25-1.25,1.25c-0.69,0-1.25-0.56-1.25-1.25s0.56-1.25,1.25-1.25
		C141.85,125.1,142.41,125.66,142.41,126.35z"/>
	<path class="st3" d="M163.93,126.35c0,0.69-0.56,1.25-1.25,1.25c-0.69,0-1.25-0.56-1.25-1.25s0.56-1.25,1.25-1.25
		C163.36,125.1,163.93,125.66,163.93,126.35z"/>
	<path class="st3" d="M158.8,136.23c0,0.69-0.56,1.25-1.25,1.25c-0.69,0-1.25-0.56-1.25-1.25c0-0.69,0.56-1.25,1.25-1.25
		C158.24,134.97,158.8,135.53,158.8,136.23z"/>
	<path class="st4" d="M147.54,136.23c0,0.69-0.56,1.25-1.25,1.25c-0.69,0-1.25-0.56-1.25-1.25c0-0.69,0.56-1.25,1.25-1.25
		C146.98,134.97,147.54,135.53,147.54,136.23z"/>
	<path class="st3" d="M166.68,130.08l-4.23,1.13l-3.11-1.8v-6.13l3.11-1.8l4.23,1.13c0.56,0.15,1.14-0.18,1.29-0.74
		c0.15-0.56-0.18-1.14-0.74-1.29l-2.2-0.59l1.74-1c0.5-0.29,0.67-0.93,0.38-1.44c-0.29-0.5-0.93-0.67-1.44-0.38l-1.74,1l0.59-2.2
		c0.15-0.56-0.18-1.14-0.74-1.29c-0.56-0.15-1.14,0.18-1.29,0.74l-1.13,4.23l-3.11,1.8l-5.31-3.07v-3.59l3.1-3.1
		c0.41-0.41,0.41-1.08,0-1.49c-0.41-0.41-1.08-0.41-1.49,0l-1.61,1.61v-2.01c0-0.58-0.47-1.05-1.05-1.05v35.15
		c0.58,0,1.05-0.47,1.05-1.05v-2.01l1.61,1.61c0.41,0.41,1.08,0.41,1.49,0c0.41-0.41,0.41-1.08,0-1.49l-3.1-3.1v-3.59l5.31-3.07
		l3.11,1.8l1.13,4.23c0.15,0.56,0.73,0.89,1.29,0.74c0.56-0.15,0.89-0.73,0.74-1.29l-0.59-2.2l1.74,1c0.5,0.29,1.15,0.12,1.44-0.38
		c0.29-0.5,0.12-1.15-0.38-1.44l-1.74-1l2.2-0.59c0.56-0.15,0.89-0.73,0.74-1.29C167.81,130.26,167.24,129.93,166.68,130.08z
		 M152.97,120.83l3.21,1.85l-3.21,1.85V120.83z M152.97,131.88v-3.7l3.21,1.85L152.97,131.88z M157.23,128.21l-3.21-1.85l3.21-1.85
		V128.21z"/>
</g>
<g>
	<path class="st4" d="M157.19,185.49l-2.12,0.57l-1.56-0.9v-3.07l1.56-0.9l2.12,0.57c0.28,0.08,0.57-0.09,0.64-0.37
		c0.07-0.28-0.09-0.57-0.37-0.64l-1.1-0.3l0.87-0.5c0.25-0.14,0.34-0.47,0.19-0.72c-0.14-0.25-0.47-0.34-0.72-0.19l-0.87,0.5
		l0.3-1.1c0.08-0.28-0.09-0.57-0.37-0.64c-0.28-0.08-0.57,0.09-0.64,0.37l-0.57,2.12l-1.56,0.9l-2.65-1.53v-1.8l1.55-1.55
		c0.21-0.21,0.21-0.54,0-0.74c-0.21-0.2-0.54-0.2-0.74,0l-0.81,0.81v-1c0-0.29-0.24-0.53-0.53-0.53c-0.29,0-0.53,0.24-0.53,0.53v1
		l-0.81-0.81c-0.21-0.2-0.54-0.2-0.74,0c-0.21,0.21-0.21,0.54,0,0.74l1.55,1.55v1.8l-2.65,1.53l-1.56-0.9l-0.57-2.12
		c-0.07-0.28-0.36-0.45-0.64-0.37c-0.28,0.07-0.45,0.36-0.37,0.64l0.3,1.1l-0.87-0.5c-0.25-0.15-0.57-0.06-0.72,0.19
		c-0.15,0.25-0.06,0.57,0.19,0.72l0.87,0.5l-1.1,0.3c-0.28,0.07-0.45,0.36-0.37,0.64c0.08,0.28,0.36,0.45,0.64,0.37l2.12-0.57
		l1.56,0.9v3.07l-1.56,0.9l-2.12-0.57c-0.28-0.08-0.57,0.09-0.64,0.37c-0.07,0.28,0.09,0.57,0.37,0.64l1.1,0.3l-0.87,0.5
		c-0.25,0.14-0.34,0.47-0.19,0.72c0.14,0.25,0.47,0.34,0.72,0.19l0.87-0.5l-0.3,1.1c-0.08,0.28,0.09,0.57,0.37,0.64
		c0.28,0.08,0.57-0.09,0.64-0.37l0.57-2.12l1.56-0.9l2.65,1.53v1.8l-1.55,1.55c-0.21,0.21-0.21,0.54,0,0.74
		c0.21,0.2,0.54,0.2,0.74,0l0.81-0.81v1c0,0.29,0.24,0.53,0.53,0.53c0.29,0,0.53-0.24,0.53-0.53v-1l0.81,0.81
		c0.21,0.2,0.54,0.2,0.74,0c0.21-0.21,0.21-0.54,0-0.74l-1.55-1.55v-1.8l2.65-1.53l1.56,0.9l0.57,2.12
		c0.08,0.28,0.36,0.45,0.64,0.37c0.28-0.07,0.45-0.36,0.37-0.64l-0.3-1.1l0.87,0.5c0.25,0.15,0.57,0.06,0.72-0.19
		c0.15-0.25,0.06-0.57-0.19-0.72l-0.87-0.5l1.1-0.3c0.28-0.07,0.45-0.36,0.37-0.64C157.76,185.58,157.47,185.41,157.19,185.49z
		 M147.16,182.7l1.6,0.93l-1.6,0.93V182.7z M149.29,186.39l-1.6-0.93l1.6-0.93V186.39z M149.29,182.71l-1.6-0.93l1.6-0.93V182.71z
		 M150.34,180.86l1.6,0.93l-1.6,0.93V180.86z M150.34,186.39v-1.85l1.6,0.93L150.34,186.39z M152.47,184.55l-1.6-0.93l1.6-0.93
		V184.55z"/>
	<path class="st4" d="M145.06,183.62c0,0.35-0.28,0.63-0.63,0.63s-0.63-0.28-0.63-0.63s0.28-0.63,0.63-0.63
		S145.06,183.28,145.06,183.62z"/>
	<path class="st3" d="M155.82,183.62c0,0.35-0.28,0.63-0.63,0.63c-0.35,0-0.63-0.28-0.63-0.63s0.28-0.63,0.63-0.63
		C155.54,183,155.82,183.28,155.82,183.62z"/>
	<path class="st3" d="M153.26,188.56c0,0.35-0.28,0.63-0.63,0.63s-0.63-0.28-0.63-0.63c0-0.35,0.28-0.63,0.63-0.63
		S153.26,188.21,153.26,188.56z"/>
	<path class="st4" d="M147.62,188.56c0,0.35-0.28,0.63-0.63,0.63s-0.63-0.28-0.63-0.63c0-0.35,0.28-0.63,0.63-0.63
		S147.62,188.21,147.62,188.56z"/>
	<path class="st3" d="M157.19,185.49l-2.12,0.57l-1.56-0.9v-3.07l1.56-0.9l2.12,0.57c0.28,0.08,0.57-0.09,0.64-0.37
		c0.07-0.28-0.09-0.57-0.37-0.64l-1.1-0.3l0.87-0.5c0.25-0.14,0.34-0.47,0.19-0.72c-0.14-0.25-0.47-0.34-0.72-0.19l-0.87,0.5
		l0.3-1.1c0.08-0.28-0.09-0.57-0.37-0.64c-0.28-0.08-0.57,0.09-0.64,0.37l-0.57,2.12l-1.56,0.9l-2.65-1.53v-1.8l1.55-1.55
		c0.21-0.21,0.21-0.54,0-0.74c-0.21-0.2-0.54-0.2-0.74,0l-0.81,0.81v-1c0-0.29-0.24-0.53-0.53-0.53v17.58
		c0.29,0,0.53-0.24,0.53-0.53v-1l0.81,0.81c0.21,0.2,0.54,0.2,0.74,0c0.21-0.21,0.21-0.54,0-0.74l-1.55-1.55v-1.8l2.65-1.53
		l1.56,0.9l0.57,2.12c0.08,0.28,0.36,0.45,0.64,0.37c0.28-0.07,0.45-0.36,0.37-0.64l-0.3-1.1l0.87,0.5
		c0.25,0.15,0.57,0.06,0.72-0.19c0.15-0.25,0.06-0.57-0.19-0.72l-0.87-0.5l1.1-0.3c0.28-0.07,0.45-0.36,0.37-0.64
		C157.76,185.58,157.47,185.41,157.19,185.49z M150.34,180.86l1.6,0.93l-1.6,0.93V180.86z M150.34,186.39v-1.85l1.6,0.93
		L150.34,186.39z M152.47,184.55l-1.6-0.93l1.6-0.93V184.55z"/>
</g>
<g>
	<path class="st4" d="M171.69,161.55l-1.06,0.28l-0.78-0.45v-1.53l0.78-0.45l1.06,0.28c0.14,0.04,0.28-0.05,0.32-0.19
		c0.04-0.14-0.05-0.28-0.19-0.32l-0.55-0.15l0.43-0.25c0.13-0.07,0.17-0.23,0.1-0.36c-0.07-0.13-0.23-0.17-0.36-0.1l-0.43,0.25
		l0.15-0.55c0.04-0.14-0.05-0.28-0.19-0.32c-0.14-0.04-0.28,0.05-0.32,0.19l-0.28,1.06l-0.78,0.45l-1.33-0.77v-0.9l0.77-0.77
		c0.1-0.1,0.1-0.27,0-0.37c-0.1-0.1-0.27-0.1-0.37,0l-0.4,0.4v-0.5c0-0.15-0.12-0.26-0.26-0.26c-0.15,0-0.26,0.12-0.26,0.26v0.5
		l-0.4-0.4c-0.1-0.1-0.27-0.1-0.37,0c-0.1,0.1-0.1,0.27,0,0.37l0.77,0.77v0.9l-1.33,0.77l-0.78-0.45l-0.28-1.06
		c-0.04-0.14-0.18-0.22-0.32-0.19c-0.14,0.04-0.22,0.18-0.19,0.32l0.15,0.55l-0.43-0.25c-0.13-0.07-0.29-0.03-0.36,0.1
		c-0.07,0.13-0.03,0.29,0.1,0.36l0.43,0.25l-0.55,0.15c-0.14,0.04-0.22,0.18-0.19,0.32c0.04,0.14,0.18,0.22,0.32,0.19l1.06-0.28
		l0.78,0.45v1.53l-0.78,0.45l-1.06-0.28c-0.14-0.04-0.28,0.05-0.32,0.19c-0.04,0.14,0.05,0.28,0.19,0.32l0.55,0.15l-0.43,0.25
		c-0.13,0.07-0.17,0.23-0.1,0.36c0.07,0.13,0.23,0.17,0.36,0.1l0.43-0.25l-0.15,0.55c-0.04,0.14,0.05,0.28,0.19,0.32
		c0.14,0.04,0.28-0.05,0.32-0.19l0.28-1.06l0.78-0.45l1.33,0.77v0.9l-0.77,0.77c-0.1,0.1-0.1,0.27,0,0.37c0.1,0.1,0.27,0.1,0.37,0
		l0.4-0.4v0.5c0,0.15,0.12,0.26,0.26,0.26c0.15,0,0.26-0.12,0.26-0.26v-0.5l0.4,0.4c0.1,0.1,0.27,0.1,0.37,0
		c0.1-0.1,0.1-0.27,0-0.37l-0.77-0.77v-0.9l1.33-0.77l0.78,0.45l0.28,1.06c0.04,0.14,0.18,0.22,0.32,0.19
		c0.14-0.04,0.22-0.18,0.19-0.32l-0.15-0.55l0.43,0.25c0.13,0.07,0.29,0.03,0.36-0.1c0.07-0.13,0.03-0.29-0.1-0.36l-0.43-0.25
		l0.55-0.15c0.14-0.04,0.22-0.18,0.19-0.32C171.97,161.6,171.83,161.51,171.69,161.55z M166.67,160.16l0.8,0.46l-0.8,0.46V160.16z
		 M167.74,162l-0.8-0.46l0.8-0.46V162z M167.74,160.16l-0.8-0.46l0.8-0.46V160.16z M168.26,159.24l0.8,0.46l-0.8,0.46V159.24z
		 M168.26,162v-0.93l0.8,0.46L168.26,162z M169.33,161.08l-0.8-0.46l0.8-0.46V161.08z"/>
	<path class="st4" d="M165.62,160.62c0,0.17-0.14,0.31-0.31,0.31c-0.17,0-0.31-0.14-0.31-0.31c0-0.17,0.14-0.31,0.31-0.31
		C165.48,160.31,165.62,160.45,165.62,160.62z"/>
	<path class="st3" d="M171,160.62c0,0.17-0.14,0.31-0.31,0.31c-0.17,0-0.31-0.14-0.31-0.31c0-0.17,0.14-0.31,0.31-0.31
		C170.86,160.31,171,160.45,171,160.62z"/>
	<path class="st3" d="M169.72,163.09c0,0.17-0.14,0.31-0.31,0.31c-0.17,0-0.31-0.14-0.31-0.31c0-0.17,0.14-0.31,0.31-0.31
		C169.58,162.77,169.72,162.91,169.72,163.09z"/>
	<path class="st4" d="M166.9,163.09c0,0.17-0.14,0.31-0.31,0.31c-0.17,0-0.31-0.14-0.31-0.31c0-0.17,0.14-0.31,0.31-0.31
		C166.76,162.77,166.9,162.91,166.9,163.09z"/>
	<path class="st3" d="M171.69,161.55l-1.06,0.28l-0.78-0.45v-1.53l0.78-0.45l1.06,0.28c0.14,0.04,0.28-0.05,0.32-0.19
		c0.04-0.14-0.05-0.28-0.19-0.32l-0.55-0.15l0.43-0.25c0.13-0.07,0.17-0.23,0.1-0.36c-0.07-0.13-0.23-0.17-0.36-0.1l-0.43,0.25
		l0.15-0.55c0.04-0.14-0.05-0.28-0.19-0.32c-0.14-0.04-0.28,0.05-0.32,0.19l-0.28,1.06l-0.78,0.45l-1.33-0.77v-0.9l0.77-0.77
		c0.1-0.1,0.1-0.27,0-0.37c-0.1-0.1-0.27-0.1-0.37,0l-0.4,0.4v-0.5c0-0.15-0.12-0.26-0.26-0.26v8.79c0.15,0,0.26-0.12,0.26-0.26
		v-0.5l0.4,0.4c0.1,0.1,0.27,0.1,0.37,0c0.1-0.1,0.1-0.27,0-0.37l-0.77-0.77v-0.9l1.33-0.77l0.78,0.45l0.28,1.06
		c0.04,0.14,0.18,0.22,0.32,0.19c0.14-0.04,0.22-0.18,0.19-0.32l-0.15-0.55l0.43,0.25c0.13,0.07,0.29,0.03,0.36-0.1
		c0.07-0.13,0.03-0.29-0.1-0.36l-0.43-0.25l0.55-0.15c0.14-0.04,0.22-0.18,0.19-0.32C171.97,161.6,171.83,161.51,171.69,161.55z
		 M168.26,159.24l0.8,0.46l-0.8,0.46V159.24z M168.26,162v-0.93l0.8,0.46L168.26,162z M169.33,161.08l-0.8-0.46l0.8-0.46V161.08z"/>
</g>
</svg>
